<mxfile host="app.diagrams.net" agent="Mozilla/5.0 (Windows NT 10.0; Win64; x64) AppleWebKit/537.36 (KHTML, like Gecko) Chrome/135.0.0.0 Safari/537.36 Edg/135.0.0.0" version="26.2.14">
  <diagram name="Page-1" id="wOU_BE5X9aD4WOK6j6Xa">
    <mxGraphModel dx="782" dy="1194" grid="1" gridSize="10" guides="1" tooltips="1" connect="1" arrows="1" fold="1" page="1" pageScale="1" pageWidth="850" pageHeight="1100" math="0" shadow="0">
      <root>
        <mxCell id="0" />
        <mxCell id="1" parent="0" />
        <mxCell id="doVB9iUuh4Ds8grdma0x-55" value="" style="rounded=0;whiteSpace=wrap;html=1;strokeColor=#FFFFFF;" vertex="1" parent="1">
          <mxGeometry x="85" y="240" width="1075" height="440" as="geometry" />
        </mxCell>
        <mxCell id="doVB9iUuh4Ds8grdma0x-3" value="" style="rounded=0;whiteSpace=wrap;html=1;" vertex="1" parent="1">
          <mxGeometry x="205" y="264.5" width="835" height="370" as="geometry" />
        </mxCell>
        <mxCell id="doVB9iUuh4Ds8grdma0x-52" value="" style="rounded=0;whiteSpace=wrap;html=1;fillColor=#f5f5f5;strokeColor=#666666;fontColor=#333333;" vertex="1" parent="1">
          <mxGeometry x="879.9999999999999" y="388.5" width="120" height="130" as="geometry" />
        </mxCell>
        <mxCell id="doVB9iUuh4Ds8grdma0x-46" value="" style="rounded=0;whiteSpace=wrap;html=1;dashed=1;" vertex="1" parent="1">
          <mxGeometry x="510" y="349" width="350" height="201" as="geometry" />
        </mxCell>
        <mxCell id="doVB9iUuh4Ds8grdma0x-41" value="" style="rounded=0;whiteSpace=wrap;html=1;fillColor=#f5f5f5;strokeColor=#666666;fontColor=#333333;" vertex="1" parent="1">
          <mxGeometry x="697.5999999999999" y="388.5" width="120" height="130" as="geometry" />
        </mxCell>
        <mxCell id="doVB9iUuh4Ds8grdma0x-38" value="" style="rounded=0;whiteSpace=wrap;html=1;fillColor=#f5f5f5;strokeColor=#666666;fontColor=#333333;" vertex="1" parent="1">
          <mxGeometry x="230" y="390" width="120" height="130" as="geometry" />
        </mxCell>
        <mxCell id="doVB9iUuh4Ds8grdma0x-35" value="" style="rounded=0;whiteSpace=wrap;html=1;fillColor=#f5f5f5;strokeColor=#666666;fontColor=#333333;" vertex="1" parent="1">
          <mxGeometry x="379" y="390" width="120" height="130" as="geometry" />
        </mxCell>
        <mxCell id="doVB9iUuh4Ds8grdma0x-33" value="" style="rounded=0;whiteSpace=wrap;html=1;fillColor=#f5f5f5;strokeColor=#666666;fontColor=#333333;" vertex="1" parent="1">
          <mxGeometry x="549.9999999999999" y="388.5" width="120" height="130" as="geometry" />
        </mxCell>
        <mxCell id="doVB9iUuh4Ds8grdma0x-1" value="Databricks" style="image;aspect=fixed;html=1;points=[];align=center;fontSize=12;image=img/lib/azure2/analytics/Azure_Databricks.svg;" vertex="1" parent="1">
          <mxGeometry x="578.5999999999999" y="418.5" width="62.8" height="68" as="geometry" />
        </mxCell>
        <mxCell id="doVB9iUuh4Ds8grdma0x-5" value="Data Factory" style="image;aspect=fixed;html=1;points=[];align=center;fontSize=12;image=img/lib/azure2/databases/Data_Factory.svg;" vertex="1" parent="1">
          <mxGeometry x="260" y="418" width="68" height="68" as="geometry" />
        </mxCell>
        <mxCell id="doVB9iUuh4Ds8grdma0x-6" value="Data Lake" style="image;sketch=0;aspect=fixed;html=1;points=[];align=center;fontSize=12;image=img/lib/mscae/Data_Lake.svg;" vertex="1" parent="1">
          <mxGeometry x="420" y="429" width="38" height="50" as="geometry" />
        </mxCell>
        <mxCell id="doVB9iUuh4Ds8grdma0x-7" value="Data Lake" style="image;sketch=0;aspect=fixed;html=1;points=[];align=center;fontSize=12;image=img/lib/mscae/Data_Lake.svg;" vertex="1" parent="1">
          <mxGeometry x="738.5999999999999" y="427" width="38" height="50" as="geometry" />
        </mxCell>
        <mxCell id="doVB9iUuh4Ds8grdma0x-8" value="Synapse Analytics" style="image;aspect=fixed;html=1;points=[];align=center;fontSize=12;image=img/lib/azure2/analytics/Azure_Synapse_Analytics.svg;" vertex="1" parent="1">
          <mxGeometry x="909.9999999999999" y="415.5" width="60" height="69" as="geometry" />
        </mxCell>
        <mxCell id="doVB9iUuh4Ds8grdma0x-9" value="Data&lt;br&gt;Sources" style="sketch=0;points=[[0,0,0],[0.25,0,0],[0.5,0,0],[0.75,0,0],[1,0,0],[1,0.25,0],[1,0.5,0],[1,0.75,0],[1,1,0],[0.75,1,0],[0.5,1,0],[0.25,1,0],[0,1,0],[0,0.75,0],[0,0.5,0],[0,0.25,0]];rounded=1;absoluteArcSize=1;arcSize=2;html=1;strokeColor=none;gradientColor=none;shadow=0;dashed=0;fontSize=12;fontColor=#9E9E9E;align=left;verticalAlign=top;spacing=10;spacingTop=-4;whiteSpace=wrap;fillColor=#FFF8E1;" vertex="1" parent="1">
          <mxGeometry x="100" y="414.5" width="80" height="70" as="geometry" />
        </mxCell>
        <mxCell id="doVB9iUuh4Ds8grdma0x-13" value="" style="endArrow=classic;html=1;rounded=0;entryX=0.15;entryY=0.235;entryDx=0;entryDy=0;entryPerimeter=0;" edge="1" parent="1">
          <mxGeometry width="50" height="50" relative="1" as="geometry">
            <mxPoint x="180" y="452" as="sourcePoint" />
            <mxPoint x="260" y="451.70999999999987" as="targetPoint" />
          </mxGeometry>
        </mxCell>
        <mxCell id="doVB9iUuh4Ds8grdma0x-17" value="" style="endArrow=classic;html=1;rounded=0;" edge="1" parent="1" target="doVB9iUuh4Ds8grdma0x-1">
          <mxGeometry width="50" height="50" relative="1" as="geometry">
            <mxPoint x="458.6" y="453.77" as="sourcePoint" />
            <mxPoint x="560" y="454" as="targetPoint" />
          </mxGeometry>
        </mxCell>
        <mxCell id="doVB9iUuh4Ds8grdma0x-45" value="Extract" style="edgeLabel;html=1;align=center;verticalAlign=middle;resizable=0;points=[];fontColor=#000000;labelBackgroundColor=#FFFFFF;" vertex="1" connectable="0" parent="doVB9iUuh4Ds8grdma0x-17">
          <mxGeometry x="-0.0713" y="1" relative="1" as="geometry">
            <mxPoint x="16" as="offset" />
          </mxGeometry>
        </mxCell>
        <mxCell id="doVB9iUuh4Ds8grdma0x-18" value="" style="endArrow=classic;html=1;rounded=0;" edge="1" parent="1">
          <mxGeometry width="50" height="50" relative="1" as="geometry">
            <mxPoint x="641.4" y="451.81" as="sourcePoint" />
            <mxPoint x="738.5999999999999" y="451.5" as="targetPoint" />
          </mxGeometry>
        </mxCell>
        <mxCell id="doVB9iUuh4Ds8grdma0x-19" value="" style="endArrow=classic;html=1;rounded=0;" edge="1" parent="1">
          <mxGeometry width="50" height="50" relative="1" as="geometry">
            <mxPoint x="776.6" y="451.5" as="sourcePoint" />
            <mxPoint x="910" y="452.5" as="targetPoint" />
          </mxGeometry>
        </mxCell>
        <mxCell id="doVB9iUuh4Ds8grdma0x-51" value="Load" style="edgeLabel;html=1;align=center;verticalAlign=middle;resizable=0;points=[];" vertex="1" connectable="0" parent="doVB9iUuh4Ds8grdma0x-19">
          <mxGeometry x="-0.2988" y="-1" relative="1" as="geometry">
            <mxPoint x="17" y="-1" as="offset" />
          </mxGeometry>
        </mxCell>
        <mxCell id="doVB9iUuh4Ds8grdma0x-25" value="Power BI" style="image;aspect=fixed;html=1;points=[];align=center;fontSize=12;image=img/lib/azure2/power_platform/PowerBI.svg;" vertex="1" parent="1">
          <mxGeometry x="1080" y="409" width="51" height="68" as="geometry" />
        </mxCell>
        <mxCell id="doVB9iUuh4Ds8grdma0x-27" value="" style="shape=image;verticalLabelPosition=bottom;labelBackgroundColor=default;verticalAlign=top;aspect=fixed;imageAspect=0;image=data:image/png,iVBORw0KGgoAAAANSUhEUgAABQAAAALQCAYAAADPfd1WAAAABmJLR0QA/wD/AP+gvaeTAACAAElEQVR42uz9f2xU950v/r/H9uAAS2xoA0ltPgRr6yxQ4fSPRpdbLm3TJl3sbRdVKivuV4oiraJKvYvqW2Wjq6QoiUhWq26VdcV+K1VRpSjSt/k2lSK6raFNGvJjyScfkT8aomIWpzLlix3AJIBhDbHH9nz/GE48tmfsmfHYHh8/HlLEZDw/zzkzc87zvN7vV+Lr7X8TAAAAAIB4qrIIAAAAACC+BIAAAAAAEGMCQAAAAACIMQEgAAAAAMSYABAAAAAAYkwACAAAAAAxJgAEAAAAgBgTAAIAAABAjAkAAQAAACDGBIAAAAAAEGMCQAAAAACIMQEgAAAAAMSYABAAAAAAYkwACAAAAAAxJgAEAAAAgBgTAAIAAABAjAkAAQAAACDGBIAAAAAAEGMCQAAAAACIMQEgAAAAAMSYABAAAAAAYkwACAAAAAAxJgAEAAAAgBgTAAIAAABAjAkAAQAAACDGBIAAAAAAEGMCQAAAAACIMQEgAAAAAMSYABAAAAAAYkwACAAAAAAxJgAEAAAAgBgTAAIAAABAjAkAAQAAACDGBIAAAAAAEGMCQAAAAACIMQEgAAAAAMSYABAAAAAAYkwACAAAAAAxJgAEAAAAgBgTAAIAAABAjAkAAQAAACDGBIAAAAAAEGMCQAAAAACIMQEgAAAAAMSYABAAAAAAYkwACAAAAAAxJgAEAAAAgBgTAAIAAABAjAkAAQAAACDGBIAAAAAAEGMCQAAAAACIMQEgAAAAAMSYABAAAAAAYkwACAAAAAAxJgAEAAAAgBgTAAIAAABAjAkAAQAAACDGBIAAAAAAEGMCQAAAAACIMQEgAAAAAMSYABAAAAAAYkwACAAAAAAxJgAEAAAAgBgTAAIAAABAjAkAAQAAACDGBIAAAAAAEGMCQAAAAACIMQEgAAAAAMSYABAAAAAAYkwACAAAAAAxJgAEAAAAgBgTAAIAAABAjAkAAQAAACDGBIAAAAAAEGMCQAAAAACIMQEgAAAAAMSYABAAAAAAYkwACAAAAAAxJgAEAAAAgBgTAAIAAABAjAkAAQAAACDGBIAAAAAAEGMCQAAAAACIMQEgAAAAAMSYABAAAAAAYkwACAAAAAAxJgAEAAAAgBgTAAIAAABAjAkAAQAAACDGBIAAAAAAEGMCQAAAAACIMQEgAAAAAMSYABAAAAAAYkwACAAAAAAxJgAEAAAAgBgTAAIAAABAjAkAAQAAACDGBIAAAAAAEGMCQAAAAACIMQEgAAAAAMSYABAAAAAAYkwACAAAAAAxJgAEAAAAgBgTAAIAAABAjAkAAQAAACDGBIAAAAAAEGMCQAAAAACIMQEgAAAAAMSYABAAAAAAYkwACAAAAAAxJgAEAAAAgBgTAAIAAABAjAkAAQAAACDGBIAAAAAAEGMCQAAAAACIMQEgAAAAAMSYABAAAAAAYkwACAAAAAAxJgAEAAAAgBgTAAIAAABAjAkAAQAAACDGBIAAAAAAEGMCQAAAAACIMQEgAAAAAMSYABAAAAAAYkwACAAAAAAxJgAEAAAAgBgTAAIAAABAjAkAAQAAACDGBIAAAAAAEGMCQAAAAACIMQEgAAAAAMSYABAAAAAAYkwACAAAAAAxJgAEAAAAgBgTAAIAAABAjAkAAQAAACDGBIAAAAAAEGMCQAAAAACIMQEgAAAAAMSYABAAAAAAYkwACAAAAAAxJgAEAAAAgBgTAAIAAABAjAkAAQAAACDGBIAAAAAAEGMCQAAAAACIMQEgAAAAAMSYABAAAAAAYkwACAAAAAAxJgAEAAAAgBgTAAIAAABAjAkAAQAAACDGBIAAAAAAEGMCQAAAAACIMQEgAAAAAMSYABAAAAAAYkwACAAAAAAxJgAEAAAAgBgTAAIAAABAjAkAAQAAACDGBIAAAAAAEGMCQAAAAACIMQEgAAAAAMSYABAAAAAAYkwACAAAAAAxJgAEAAAAgBgTAAIAAABAjAkAAQAAACDGBIAAAAAAEGMCQAAAAACIMQEgAAAAAMSYABAAAAAAYkwACAAAAAAxJgAEAAAAgBgTAAIAAABAjAkAAQAAACDGBIAAAAAAEGMCQAAAAACIMQEgAAAAAMSYABAAAAAAYkwACAAAAAAxJgAEAAAAgBgTAAIAAABAjAkAAQAAACDGBIAAAAAAEGMCQAAAAACIMQEgAAAAAMSYABAAAAAAYkwACAAAAAAxJgAEAAAAgBgTAAIAAABAjAkAAQAAACDGBIAAAAAAEGMCQAAAAACIMQEgAAAAAMSYABAAAAAAYkwACAAAAAAxJgAEAAAAgBgTAAIAAABAjAkAAQAAACDGBIAAAAAAEGMCQAAAAACIMQEgAAAAAMSYABAAAAAAYkwACAAAAAAxJgAEAAAAgBgTAAIAAABAjAkAAQAAACDGBIAAAAAAEGMCQAAAAACIMQEgAAAAAMSYABAAAAAAYkwACAAAAAAxJgAEAAAAgBgTAAIAAABAjAkAAQAAACDGBIAAAAAAEGMCQAAAAACIMQEgAAAAAMSYABAAAAAAYkwACAAAAAAxJgAEAAAAgBgTAAIAAABAjAkAAQAAACDGBIAAAAAAEGMCQAAAAACIMQEgAAAAAMSYABAAAAAAYkwACAAAAAAxJgAEAAAAgBgTAAIAAABAjAkAAQAAACDGBIAAAAAAEGMCQAAAAACIMQEgAAAAAMSYABAAAAAAYkwACAAAAAAxJgAEAAAAgBgTAAIAAABAjAkAAQAAACDGBIAAAAAAEGMCQAAAAACIMQEgAAAAAMSYABAAAAAAYkwACAAAAAAxJgAEAAAAgBgTAAIAAABAjAkAAQAAACDGBIAAAAAAEGMCQAAAAACIMQEgAAAAAMSYABAAAAAAYkwACAAAAAAxJgAEAAAAgBgTAMIisbO1o2Fna0eDJQEAAAAUo8YigMrX1tax549nB5rOvPf405YGAAAAUAwVgFDhNmx98rEDv/vTT6oTVW9YGgAAAECxBIBQwTZsffKxV06cf6ph9S0n72pYddoSAQAAAIplCDBUoJ2tHQ2vd/U/88qJ87tDCOFb9zQe6Oxs77NkAAAAgGIJAKHCNLXs3/56V//e42cv7w4hhA1rVr49lg5vWjIAAABAKQSAUEHa2jr2HPjdn34yOJyur01mrlP9BwAAAMyGOQChQkTNPkbSVfW1ybEwlKpS/QcAAADMmgpAWGA7WzsaunoHHnzlxPmnQkh+cn1tciw037Gq8/Ah1X8AAABA6VQAwgKKmn385t3+CeFfCCGsSC7r3txY95ylBAAAAMyGCkBYIDtbOxoOvtP7y+4LN7bVJqsn/G0oVRXu27LmedV/AAAAwGypAIQF0NbWsefZI6ePZMK/sRBCKoSQCkOp0RBCKqxeUdNdnah6w5ICAAAAZksFIMyzDVuffOxff3vqqRBCqE0mQwjVIRMAhpCpBBwLX2xe83zP8X1HLS0AAABgtlQAwjzasPXJx17ruvhw7r8mQwipsCK5TPUfAAAAUDYqAGEeRM0+XjlxfvfUv6ZCdgOQ2VT/7WztaKhKhB2dne0vWOoAAABACCoAYc5F4d+xnoHdEzv9Jif9mwo1ieors6n+O9V3beNPXz39RFPL/u2WPAAAABCCABDmVFPL/u0H3+n95bGegd3jnX6Tk26Vmf9vKFUVtjTe+vJs5v47N3Bj7+XrI83nBm7stfQBAACAEASAMGfa2jr2vHnqw5+duTSY1ek3TPp3fPhvbXIs3Ltl7cFSn29na0fDid6r99cmx8KJ3qv3qwIEAAAAQjAHIJTdztaOhq7egQcP/O5PD4+kR+sn/jUK/5JhciDYsn71i7OZu6+rd+DB6PlG0qP1Jz8Y+GFtCP/dGgEAAIClTQUglNHO1o6Gn/z+9PdeOXH+qanhX7bUlGtmU/0XQgj9V4e2DqWij3Qy9F3+eFNbW8ceawUAAACWNgEglMnO1o6Gg+/0/jI1OvyP098yGSbPA7hhzcq3x9LhzVKfu62tY8+J3qv3jz9+pgrwp6+efmJna0eDtQMAAABLlwAQyiBq9tF94ca28WuTef4NU/7/W/c0Hjh8qL2v1Of/49mBppH0aH1mrsFx11PDzV29Aw9aQwAAALB0CQBhlppa9m9/89SHP+u+cGPbeKffEMYbfKSmvf+K5LLu2VT/7WztaOg+d60tM/w3GYZSozf/kgxDqarwVvelBzQEAQAAgKVLAAizsGHrk4/9/sSFX19PDTdnwr/sJh/JPJcnBoJfbF7z/Gyq/6oSYUem03AmfMwOIWuTY+F6arj53MCNvdYWAAAALE0CQCjRhq1PPpZp9lFVPzHYm9rhN4QQ1q0M6Yl/T4UVyWXdmxvrnpvN6/jj2YGm8eYfuR0/e3m3hiAAAACwNAkAoUg7Wzsalt/56C9eOXH+qfHKvmi4byQ55boLgyFR7uq/na0dDW91X3og/y3Gn19DEAAAAFiaBIBQhKaW/dtf7+p/5vjZy7unNvWYPOdfdjgYJl0XQk2i+kp1ouqNWX2AE2HH+PDjkDX/31SXr49oCAIAAABLkAAQCtTUsn/7yQ8GfnisZ2BS+BcFf7kCwRDWrUyms/8/+ndL460v9xzfd3Q2r+nIif5dmeG/mSHFk7sAZ6tNjoW3ui89oAoQAAAAlhYBIBSgra1jz+9PXPj1eKffyVV92eHexOG/maG/IUyu/rujbvmB2bymna0dDe+fH7w7d+g3+fVkXE8NqwIEAACAJUYACDPYsPXJxw787k8/GRxO108N/0KYOv9fCFO7/Za/+i8a/pv7r9kh5MTX+1rXxYc1BAEAAIClQwAIeexs7Wg4vex7P3yt6+LDI+mq+mievYypwVq+wG389uP/zrb6L4TM8N/cf0lN8xpDGEmP1h850b/LUGAAAABYGgSAkENTy/7tB9/p/WVqdPgfR9Kj9dEce9MN9R2X7/rM/TasWfn2XQ2rTs/m9UXDf3P/NV9n4oyhVFU41jOwuyoRdljTAAAAEH8CQJgkavbRfeHGttwhXgiFdQBO5bznt+5pPHD4UHvfbF5jV+/Ag5nhv8lJrynXa5jYoCSqZHzpWO9eVYAAAAAQfwJAyNLW1rHnzVMf/my82UcI4wFa9n8h5K4CzB/8hZAKLetXvziWDm/O9nV2n7vWNt79N9/z5h+SXJscC2cuDW7TEAQAAADiTwAIITOkNmr2cT013Dxxvr9IatK/kVxdgHPf994taw/OtvqvqWX/9r7LH28a7/5bzFDk8dc6lKoKb3VfeqCpZf92WwAAAADEV41FwFK3s7Wj4fWu/meOn728e/za6YfRTv3bZNnXZx5rw5qVb5ej+m80PfalzLyEyTzPNd3l8etqkyFcTw03nxu4sTeEcDQAAAAAsaQCkCVtYviXK+SbHPDlm+svXzg4rhxz/+1s7Wh4q/vSA/lfT7GvM4QTvVfvb2vr2GNrAAAAgHgSALJktbV17Hn2yOkjx3oGblb+ZYdlueb7C2H6gDD/nHvlqv6rSoQdmeYfk587ZL2+VJi5Scn4axxJj9ZrCAIAAADxJQBkSWpr69hz4Hd/+snl6yOT5vtLTbi8bmVIZy4nb17OVVE3c5Vd8x2rOmdb/RdCCEdO9O8a/798wWMxFYqZ6/suf7ypKhF22DIAAAAgfgSALDlRs4+R9Gj9eCONEHKFZBcGQyL6v+zL01fZZV9OhXUrk+nNjXXPzfZ172ztaHj//ODd+W8x3VDg6S5nqgB/+urpJ1QBAgAAQPwIAFkydrZ2NCy/89FfvNZ18eFME41Irg6+EysBx81U+TdxqPBQqircvuYvflmO6r+Jw39DyF3xN93rDJPe58Qhz5evjzR39Q48aEsBAACAeBEAsiRkN/uY2EE3l+nm9Zup8m9iw5CVyxJX7qhbfqAc72F8+G/2c+UL/nJdN32jktpkdXir+9IDqgABAAAgXgSAxF5Ty/7tB9/p/eV4s48QcjXqGFdoRd10VXaZ6r+vbL7tRz3H9x2d7XvIP/y3mIrEmS6HcD013Px6V/8zthoAAACIDwEgsdbW1rHnzVMf/qz7wo1tmWYfyQLulR2eJUu4LvPf6hU13dWJqjfK8T66egcezAz/nc3rmmk4cOZvJ3qv3t/W1rHH1gMAAADxIAAktjZsffKxf/3tqZ9PnDcvhPwhYL6hsqVd98XmNc+Xq/qv+9y1tqmvM9drL/S6ycOax42kR+tfOta711BgAAAAiAcBILGzs7WjYcPWJx975cT5p6LrJnb7zRXeTb5+uiq6MM1jZcK0mkT1lXJV/1Ulwo6+yx9vmvqcxVYC5goDQ85lcebS4DYNQQAAACAeBIDEStTsIzv8Gzc+zHVyt97xy4XM7zdzELil8daXy1H9F0IIfzw70DQ4nK6f+pdC5/1LFni/MGGZdJ+71qYKEAAAABY/ASCxkbvZRz7ZVXK5TBecTVd1l3HvlrUHy/GedrZ2NLzVfemBiRWMM83ll2/ev0LuN34bVYAAAAAQDwJAYqGtrWPPyQ8Gfjje7GMm2UHYTENmZ7o8MVjbsGbl22Pp8GZZPqCJsGN4ZHTtxNc9Uzg526rAca91XXxYQxAAAABY3ASALHptbR17DvzuTz85c2nwZviXb3hvvn/zhWMzVcyFSY+fue5b9zQeOHyova8c7+3Iif5dI+nR+qnPFULx8xPmu0+u95L5byQ9Wn/kRP8uWxkAAAAsXgJAFq2o2ceB3/3pJ5k58rKDu1zDWicHe7kCwsh4KLZuZUjnr5ybeNtyVv/tbO1oeP/84N1DqaqQP8grfn7C/NflDgOPn728WxUgAAAALF4CQBalna0dDT/5/envvXLi/FMj6dH6qcN+p6t0y1c5l2sIcDJcGAyJ/IHbuKFUVVmr/6oSYcf11HDz9O8tUkpX4FzLJjnpPY2GEEJ46VjvXg1BAAAAYHESALLo7GztaDj4Tu8vU6PD/zhe4TdZvuG/hVTOFTN3XsZQajSsXlHTXa7qvxAyw38z1X/Z7yMZSp+fsNDrxkXho4YgAAAAsHgJAFlU2to69hx8p/eXZy4Nbiv+3vm79uauECxkvrzMfWuTY+GLzWueL1f1XzT8N3dDk5lCzNQ0763Y6zL/P5SqCm91X3pAFSAAAAAsPgJAFo22to49//rbUz+fGP6lJv07nZk6/BZyu9xzAK5ILuve3Fj3XLnea1fvwIPXU8PNud/nTMN/QwHvLd910eXUhNvVJqvD5esjza939T9jSwQAAIDFRQBIxctu9pFvCG5hip0XL9d9J98no5zVfyGE0H3uWtvEa6Z7jYV29i204i97qPH47WqTY+FE79X7m1r2b7dVAgAAwOIhAKSi7WztaHi9q/+ZqNlH7kq/mRt0ZBTTHbfQefNCqElUX6lOVL1Rrvfc1taxJ1PlmG9YciHvPVnSe5n4uGHKY4+kR+tPfjDwQ0OBAQAAYPEQAFKxovDv+NnLu/PfKpnn8mTTDaGdet26lcl0YRVzIWxpvPXlnuP7jpbrfR850b9r+vc72y7A+d57YcvmzKXBbVWJsMMWCgAAAIuDAJCKFDX7ONYzsHv6W6byXJ6suIq4C4Mhkf/v489Xk6i+ckfd8gPlet87WzsargwOrx9/P5NfQ77LIRTe3bfYysfo/8fv89Kx3r2qAAEAAGBxEABScdraOvYc+N2ffnLm0uC22uRYEfecPGR28r/JHLcL01yXr2vw+O2+svm2H5Wz+q8qEXacuTQ8Q5OTVJ7XOPW1r1sZ0lPfY3R9oY1Dpr6GM5cGt3X1DjxoawUAAIDKJwCkokTNPgaH0/WFNfyYHMwlZ/g3+3Yhx30nP3augG1u5v4LITP8dyg1Os17nO7y1Pc7sZIxTLo+13ILMzzm+HO+1X3pAQ1BAAAAoPIJAKkIUaff17ouPjySrqqvTVaHmZt6hDy3yTV8tdDQb6Y58cafs9xz/+1s7Wh4//zg3eNVj8kc77GQSsDpKh1ToVzzCF5PDTe/evLDb9p6AQAAoLIJAFlwUbOPKPwb/8t0FYD5qt9CyF/xV2g33Jk67SZDTaL6yr1b1h4s64cxEXZcTw03T3zefO8333ufqdJxuvceQuHDozPSY6MPtbV17LEVAwAAQOUSALKgdrZ2NETNPkbSo/UTw6t8AVb095B1ebqqtez7poq4LlcFYSoMpUbDlsZbXx5LhzfLuRxeOta7dyhVVeD7nfjex+f0yyVfVePE9z5xXsCZKiEzw4FH0lX1R07079IQBAAAACqXAJAF1dU78GCm2Ud11rXTDf3N1Y230Oq+kOc+0z1OmPJ4tcmxcO+WtQcPH2rvK9dyONV3bWPf5Y83TW16ku/9TnzNE+f0m2nIc+4Kwfydj/PdP+P42cu7qxJhh60ZAAAAKpMAkAXT1LJ/+1vdlx7I/N90c/lFl7P/nanardC57KYbOpzbhjUr3y5n9V8IIYymx76UqYAM07yvfJenq9jL1xAl1zKbfLmQSsrMvz999fQTqgABAACgMgkAWTDnBm7snTjn3WSTg6nsf0OYeYhqapbX5Z6D8Fv3NB4oZ/XfztaOhu5z19ry3yJX9V/u4cn5l18p8x6GMP1cgdG/yXA9Ndz8elf/M7ZqAAAAqDwCQBZEU8v+7Sd6r94/8y3zVQbm+ttsq/7yVQJmrh9KVc1J9d+pvmsbz1wa3Db9+5xuOG/uwHLdymQ613DfiddnP1chw4ZzrZfM5RO9V+9vatm/3dYNAAAAlUUAyLzb2drRcPKDgR9OP+Q135x3IeSuQiu1028h142HXc13rOosZ/VfCJnhv1Obf4Ss15Ar6Juu+2+ueQHHHzP/XH+5moIUMgw487eR9Gj9uYEbe23hAAAAUFkEgMz/RpcIO3JXvGXLN+ddMs/12X9Plfm6zHP9X/XV6epE1RvlXBbR8N/xJijJnM89c5ViKhQ3nHnmashMUFjI8OLxvx0/e3l3W1vHHls5AAAAVA4BIPNqZ2tHw09fPf3E1L9Mntsu3+VcXXFnCr9mc13msYdSVWHrnZ/a13N839GyfgDzhqHFVikmC7h/CIU1ApnuunzzBo7f7qVjvaoAAQAAoILUWATMp67egQdzN/7I1eQj3+Vc/58tV8g1m+tSYeWy6ivlrv4LIYQ/nh1oGkpVhdrkdB2Ii527MN/f899m3cpkemrF33SPm2t5Z5y5NLjtf7d17OnsbH/BFg8AVIKdrR0NVYmw449nB5pe/89LdZP//uW/WjPwufV1PSGEMJYOb5Z7yhcAWGiJr7f/jaXAvGhq2b/9zVMf/mxqAFhotdt0tw2hfI0/plbC3bfl9h+cee/xp8u5PHa2djQ8e+T0kYnLI1en3WJfe2oW953u8QoZipxplrJ6RU33Q/duvNfOM1S2XI17yl3pDLAQosDvyIn+Xe+fH7x7eGR07Ui6qr6Q+65IJrpDCOGLzWueL/f+HwAsFBWAzJtXT374zdTodNV/2ZfzVwJmqtVSiVwdbjPKVQE4/rxzUf1XlQg7xsO/iUOOc8/tN9NrzxhfPvkq/8I0jz3TsN/p7p95zbXJ6nA9Ndzc1TvwYAjBTjNUoLa2jj1HTvTv+sPpi9/ObhhUkxi7suXOR1++d8vag6p4gcWoqWX/9ldPfvjNZ4+c/tvL10eaQ8jsmxQz89H1VLp5KDUaus9da9vV2vGcE5oAxIE5AJkXbW0de1Kjw/+Y/xbJgi9nwq18fy9HF+BxQ6mq0LJ+9YtzUREzca68maryZnrt46aGf5lQMP/9pmvyUUjlZe5l98qJ809pCAKVZWdrR8PyOx/9xb/+tufnx3oGdk/uFj6Srqo/1jOw+8Dv/vST5Xc++oudrR0NlhqwGETfb78/ceHXqdH0P15PpZtrk9VhvNEaACxtAkDm3M7Wjob8jSGmdpItfB7A6LqZAqxC583Lfk2Zx1u5LHHl3i1rD5Z7mTS17N/ed/njTZnnKqTRxkxNOqZ/vxMP8gutMgyhsHAwdxg4lKoKR0707/IJgMqws7Wj4fWu/meO9QzsDiHkPSiuTVZ/EgQefKf3l0JAoNJt2PrkY88eOX3kWM/A7kKH+c5EcAhA3AgAmXNdvQMP5u50G8LU8KjYy9mPUWiANV2oFSY89pbGW18eS4c3y71MRtNjXxpJj9aPP/fk9zH5tc62ujFM85hTg8VMxWChyzaZ4x0mQ22yOpzovXq/KkCoDFH4V+hBbW2yOnRfuLHt9a7+Zyw9oBJFVX+vdV18OKr4K5eh1KgFDECsmAOQOXWz8ccD+W8xXRhV7PXj1+WeB29yx9sQpp/fLoSb82CVdd6Xna0dDQff6W3LdP/Ntywmv9cwy+tyL7N83X+L6wic/7kHh9P1Lx3r3burtUM3vZjasPXJx3J1UyzVVzd9+t/j1oRiZ2tHQ1fvwIPlWk7/cN/GPxQ7P9/N7+K7iz04rk1Wh2M9A7v/zzc6zAkIVJSb+1O/7L5wY9tcVOupAFx4s93HKOX3EiDOBIDMqdH02Jfyd/0ttrJs+rBuvDowFS4MJhO5nyeZNUdeasJ9xh8jY8OalW/PRfXfqb5rG89cGtxWmyy2+265rhs3viwKfZww6bVOt35SoTYZwplLg9s0BImnKMz+r49HynLwNZQaDecGbmwIIcQqADzVd23jb97tf6pcy+jfXjn9LxtDKOqAJvNdnG4u9XlvDud3EAVUhLkO/0JQAVgJ6/jZI6cfSI2W9ts1lBoNLx3rfdtJaIBxhgAzZ9raOva81nXx4cz/5WtmMV1lWSGXo+Gq5Z4HMIRv3dN4YC52GEbTY18aSlXlea0hFN51t5j3U8zfS3lNk1/LRG91X3rAPGLMpDZZHd4/P3h33LaVcwM39pZzGZWi/+rQ1lIPZqP1YgsFKsXrXf3PzGX4F4IKwIXW1TvwYNTFudT113f5402n+q5ttDQBMgSAzJkjJ/p3Zea5mzxn33Sddwu9vpDhqmHSbWd67oyh1OicVf/tbO1o6D53rW3qX/I15QihsPBt/Lr8HX9nCkinu08p8xCOr+/L10eazSNGIS5fH2m+WTEaCztbOxpO9F6934EkQHls2PrkY8XMZ1oqFYALq//q0NbZPsbgcLp+ND32JUsTIEMAyJxoa+vYc/zs5d2FNdwIobRhv4V1wC3sucf/rU2OzVn1X1Ui7Oi7/PGmzE5rcfPpFdbMJHuI88T7jjf2yLdsp3uOYqsMJ6pNjmkIQsG6z11ri0sVYFfvwIPl6kgJsNQ1tezf/lrXxYfLNaVCvuuHUqMqABd4PZfj5FltstooFIAsAkDKbmdrR8NLx3qzhrxF4VGhVX25L69bGdLl64A7+fK4Fcll3XNR/RdCdlVkIaFeqRWN0wWD0y2D/KHexGWfax3OdF0yjKRH62/OIwZ51Sarw5lLg9viMGQnqvithCqStbfWvjeb+9+2KvmRrRNYaOcGbuwdHE7Xz/ZxViQT3fc01b2YrE78y+T/7mmqe3H1ippuFYALZzQ99qVyrOcQQrieSjdXJcIOSxVAExDmQFfvwIOZeVkmd+CdfHm6+eWmVp1NHOobpr3t5OtydwXOfb8vNt/+/FxU/92czPju3H+dqdFGMR2RC70u1/W5uyRnmqrka04y03NGl0M40Xv1/r1tHXt0ZGN6yWjevEXdDKQqEXbM9RxVhapOVL2xclniykg61Bd736HUaPjWPY0HOjttmcDCKbWbeaQmMXalYfUtJzd9pu6RuxpWnT58qL0v15mmG38O4aHWjoZTfdc2zsXw0aaW/ds3Na5ab18ov7e6Lz1Qrt/OodSoRlYAN6kApKx2tnY0TP3RTk1zeab540Kev4dQzBDWTKA1c0XdiuSy7s2Ndc/NyYctEXZM7YicvSySYea/FVIVmOu6wodYT1xW0y3nQudWHL/vSHq0/qevnn7CUAxmEodmIJVU8dpzfN/RhtW3nCyloqV53fK356oqGqBQo+mxL5XaFKImMXblK5tv+1HtxR/9957j+47OdKL38KH2vp7j+46eee/xp2d7Unhna0dDU8v+7Ru2PvlY7y3fO/WrP5z/DyMi8mtr69gzm671k8W1wRhAKVQAUlavd/U/c/n6SPP4HHchTD88NVcwNVM1XK7rin2MqdVpc1n9F0J2GFDsPHrFVN0V/t7XrQzpfPMFzlQlOLG6MuSorsz3OkK4nhqOmjw87RNDPtdT6UW9ncy2UmUubPpM3SMXr6V+Nv4dPb2h1GhYuSxxZdNn6h6Zq+9FgELsbO1oOPhOb1sp943CvzPvPf70fL7ert6BB/uvDm199sjpu6+n0s3mFSzMkRP9u8q9rC5fH4mGAasCBJY0FYCUTdT4ozY5Fqav+gshf2A12863M3WlzV+dVpOovlKdqHpjLpZNNJnx1GVQ7Fx+0y2H4t77eGhXTJXg1ErA8eHCIcw8r2MIQ6mq8FrXxYebWvZv96khn6HU6KJuBjKbSpW50nN839Edd33675vXLX97pkrAodRoWL2ipvtrW9Z9o+f4vkU9FBtY/E71Xds43kStcEOp0bCl8daX5zr8y67yG7rt4f/7//3yn/74yomPnjrWM7A7qmYT/hW2HN8/P1j2k2e1yeowcX5ygKVJAEhZTG38kS3X/H+TQ8GZ5o+bvgvt+LDVkONxQyhk6OxXNt/2o7k60B1Nj30p0/wjhJk7Fc/UjTffe5z4eBND0VIfa7rln29dT9+NuTZZHUbSo/U353iDnBZzM5Co+Uclvrae4/uO7vpC47f/5u61P6hJjF3JdZsVyUT3X9xS8y8P3bvxXuEfUAk2Na5aX0pTiJXLElfuqFt+YK5e187Wjobldz76i2ePnD7yqz+c/4/fvNv/1JlLw9ui7u+5gixBYH5VibBjrk6e9V3+eJOTz8BSZwgwZdHVO/DgmUuD23L/NV81YGS6+f8Kafox0/yBuW438TZzWf0XQggTw4Bcr2e695fv9U/3nrMr/MIsHmtqiJqrSUj+x8u1jjNVgMfPXt79v9s6DpoEm3yGUlWLshnIqb5rGyul+UcuN4fzPv2/Wjueq0qEHf/2yunPR3/7h/s2/mEsHd48fKi97/Ah2yBQGf54dqCp2PsMpUZDS1Pdy3N5IuNU37WNx3oGdodQeLCnu3B+Lx3r3TtXv52Dw+n6m01dnNgCliwVgMxaVO0ylKoKucK1jHwdgUMorEptYpfa3PefePvcw4Kz7zOuYfUtJ+9qWHV6LpZPU8v+7RPD0emq7ApbBtPfLlnAYxf6WFOX18xNQlIFvobMjp5JmclnsU7cvViqWw8fau/r7Gx/YePwjx+J/uvsbH/BfH9Apem/OrS1lPutvbX2vbl+bbXJ6qKq+lQA5tbUsn973+WPN83lelrMU4sAlIMAkFnr6h14MH+1S74hv7nMNH9c5u+ZAGrmOfCKaUzxrXsaD8zVQe/Ns4053v90cxJOd5uZ5guceb7DyY81HqpmB60hXdw8ivnuM/W9R9vKmUuD225Oygw5ZTUDWRSi+T4d4AGUV7Hfq7XJ6vC59XU9lfY+VADmNpoe+1Ixw7zXrQzpzH5n4bov3FiUU4sAlIsAkFlpatm//bWuiw9nGn9km26uuJlCuUKCsUKvn+lyKmxYs/LtsXR4cy6Wz8TqyMmvL+RZNoVW001X8Zj7MTM7SlMfa2Komv+63K9x/HkyoWsh63b8/f/01dNPOBu7dBS7wz6UGi258mMhZOb7zMz9VOiycDAIUH41ibErJ3uvna201+UE0VTFzp2bvR9R7G+oOaiBpUwAyKycG7ixd7y5xXTdfpM5/pb9//kq2AptYFFcpVq2uaz+q0qEHZnqyLFJy6KQ+f9yvb+Q9z3mH5o7frmwjr0zXVdYpeb01Ynj7/t6anhRVXgxv2qT1eH42cu7F8PE3eOB/8wHI9m3cTAIML33zw/eXcr95mp6l9lw0meqYufO/f9dGU18fuNtOz6/8baiRpEs1qlFAMpFAEjJ2to69pzovXp/5v8mz/03uQIwleNvk+VrRlFId9p8j5P/8YdSVXNa/RdCCEdO9O8ar44spsvu5NecrdjbFdtRuByvbbrHmLwtJMNb3Zce0JltaSnuACiZYyh95RkP/Gc+gPm/6qvTlf5+ABazT62oqqvE1+Wkz1TFVuWtXJa4clfDqtN3Naw6vXJZ4kox9718fcSJZ2DJEgBSkp2tHQ0vHevdm5mrIznNLZM5/s3XIXby3wudHy9Z4O0mhpG1ybE5rf7b2drRMPGMda73lGsZ5btc6u1KvV+qDM+ZmmEbyKyX66nhZkMylpZiA7C3ui89UOln7IvpXnhL7bL/5/Mbb9txbTjxvmoQgPL76PrYQCW+Lt/5E0X7y8V0UW5YfcvJTLf69r4tjbe+XOwyXUxTiwCUkwCQ0jacRNhx5tLgzUqXiXO6jZvNMN1898t32+xGFoV1oJ3r6r+qRNhxPTXcnPuvyUWwlpNz9Bi518eJ3qv3t7V17PHpir//+T+a/l+3r/mLXxazw375+khzJTeMaWrZv/3itdSnCrntUGo01K9cdjYamqYaBGDp8J0/UVfvwIOXr480F3Of5jtWdUaXi+30XJusDid6r95v5AmwFAkAKVpU/TfzLWeaIy7bTHPHFToH3nTdc7Ofa27n/gshUw00+Tmnb46yVOQOFkfSo/UvHevda16W+OvsbH+h2B32EDJD6iv1PY2mx75UzAHMvVvWHrQlACw9KgAnKrYab+WyxJXqRNUb0f9XJ6reKHYY8OBwun4xTC0CUG4CQIrW1TvwYPeFG9umNrWYrJTuvIXM8TddtV/I83gTH3dFcln3XFb/TawGyrdsmLztnLk0uM28LPG3s7Wjodgd9ko+Y19s98KVyxJXxtLhzVN91zZeT6WbK+39AMSBOQArX1PL/u0neq/eX+zw357j+45G1/Uc33e0YfUtJ4tdB291X3rAGgCWGgEgRWlr69jzWtfFh8cbWxSq0GG/MzWtyPx7YTCVmHjfQioMM/8OparCF5vXPD+X1X+j6bEvZYb/TleJyNR1lFwUc71RuguDIXGq79rGnuP7ji6rqe4v5r6Vesa+mO6FQ6nRsKXx1pfn8vsHAHMALgaj6bEvZeYTL1z28N/s64pdrsMjo2tNPQMsNQJAivLSsd69I+nR+sIq2Gaahy9XKFhoJ9rC5gWcGsClwuoVNd2bG+uem8vl1H91aOtQysercOPrUXe2eFu3MnzS/OOLzWueL2aHPTpjX2kB8ckPBn5YaPVCbbJ6wnxFDgQBlhYVgOPe6r70QDHLY/Lw30ipw4AreWoRgLlQYxFQqLa2jj3/+ttT2wq/R74AL9/lmQK9fNcVer+Mua7+a2rZv/23f/xgd23SMN9S1CbHwlvdlx7Y0bL/jewhHsRDZq7OjGiHfSQd6gu9//VUOmoG8kIlvJ+mlv3bf3/iwqZCz6etSCa6NzfWPXfmvRA2Na5a/6s/nLdRlCAKgU/1XduY7zZRk5XFVm25s7WjIdf7uqth1en5fi/ZYXu+ZR0t58W4rGe7bS2291zM+lSlPHec+MnIHFf0FDwNxlBqNGxYt/xkrn3DnuP7jjbc9vDJQqvxQ8gEse+fH7z7odaOBts7i02ufYX53E+Y6bfSb0nlEgBS8Ie8sMYfk003F18I01f85XqcbLnvt25lSI+HDFPn/osOvufKaHrsS0OpqlCbzPU6s4cqk8/11HDzuYEbe0MIAsAY6zm+7+iWOx99+VjPwO5i5v+5eca+IgLAaPhSbbKw137flrXP2xkqzs7WjoaqRNjxb6+c/vzmz6zccGVweP2zR05/KoTMEK6RdFX9UGo01CarQ/TvupUh/eapD9+/bVXyo/o7Hz3b9cHgmS//1ZqB6kRVxZ5YaGvr2PNvr5z+/MF3erd/PDT837LD8prE2JU3T33Y/9k7H3333i1rD3Z2ts/J9t/Usn/7aHrsS6//56W6zZ9ZueHgO73ro/lso2UdbcvRZ/bNUx92hxDCYlrW021f2e85mqMze/tauSxx5c1TH/bne88LEdTme1+n+q5tjNbnZ+qS2w++0xuy39vkz020nYUQwm23PfxR/cplZ7s+GDzzD/dt/MNYOry52L67zAFY2Y6c6N+V/V1SiOY7VnWeuZj/b5k5ygt3+fpIRZ1UhOk0tezf/urJD7+5+TMrNzx75PTd2b/L2fsJa2+tfW9zY91z5fzOzvdbmWvfIPu35LN3Pvpu9BtZ7tdEaRJfb/8bS4EZbdj65GO/ebf/qfG5/4oJsGZq/DH5doUMAy72b5nL9225/Qdn3nv86flZVtXTLAem314y/vdf3/U/5+pAl9nb2drRcPCd3l8Wc8Y9hBD++nO3/Y8oGLhZAfDzYp63JjF25Wtb1n1jocOFna0dDc8eOX3k8vWR5kLe/+TX3dbWseeff/3+z4s9GExWJ/5l4/CPHyn29W7Y+uRjpUx6/p2vbnxiPj+H2cFF97lrbX2XP96UvXMZQnEH0JMPMFckE92fvX3lu/duWXuwkFBjZ2tHw+td/c+8f37w7mLex22rkh/t+kLjt2d6/La2jj0/ffX0E1EgM937G0qNhtUrarofunfjveXYiY526I+c6N/1/vnBuyfvyM9mWdckxq4sq6nu/2LzmucrKRgLYTzonOvt62TvtbPz+T3V1LJ/+6bGVetfOta7N/vArJT3Nfm9rUgmum9blfyo+Y5VneUKd4v5TsreNouxIpnonuvlXspriz4fpTzfZ29f+e6NP//T31XCZ2k23z3PHjl9pJhGWDP99t+syP91MetiKDUamtctf7v24o/++1y9z1J+PypNrt+zppb929889eHPKn37XX7no7840Xv1/mI/bzvu+vTfF/M9d3rZ936YrAp/W+x3x96v/+V3Z9rHamrZv/3cwI29J3qv3p990jPfNh1CCP/nG5+d9THU5H2E7JNiIRT2m5Lvd0QYuHBUAFLQh//ZI6cfyIR/xQZYhXb9LSzgW7cymc6uiig8GMzINW9IuW1urHuu/+rQ1qlVTcki3vdSDgsz73soNRpeOta7d1drx6KrOiC/7DkAQwhhLB3eXJFMdBdzEJDVDGRBA8CqRNhRaPg3lBoNLU11L2fvTP7x7EDTfL/m6PUWU3Uxn69zw9YnHzv4Tm9b3+WPN2UqK6tD9vDqUipnJt/neirdfKxnoPlYz8Du1Stqur+49cnnZ9oRvTI4vL7QZRf9/eK11LTBQ3Rg+M+/fv+T34qZ3l+5KoeiKoJnj5z+24nbcPmW9Ui6qn4kla6PToid/GDg7eatTy7oTn9bW8eeIyf6d/3+xIX752P7WrkscWXLnY++/OXNa78/l+85+3396g/n6yevz1K3m+z7Xb4+0nw9lQ7dF/q3Re9rttWon1tf1/PKiY+aJ392cv9/afMq5/rcFnO5mL8XI/p8lPJ6QgjvhkWumN/PyOTuv5NFw4DPXBouuArw5nf1p+ZyGHD270eubXsxXM73e1bMvlv0eAux/Q4Op+tH0oU3myl1mH7xyyM94202bH3ysd+fuPDw+G/W9N/pWd8TJdvZ2tHQ1Tvw4LNHTj9w+fpI8+TnLOZzm33b66l0c/eFG6H7wo1tb3VfeqCQ/S/KT5cCZvR6V/8z0Yc/E0xlN+zIJ1+n31zdevM195h620z4N12X31zPl/lby/rVL87HmfjDh9r7vrx57feb1y1/e/wLON+ymqlr8VKU2cZqk9XhzKXBbRqCxMvEAD/zeVmszUBeOta7t5i5hu7dsvZgpayHYnbePre+rmcuX8vO1o6GDVuffKz3lu+deq3r4sPdF25sG0lX1c/lMLnaZHWoTVaH66l082/e7X9quvneil12hbzuppb92589cvpIMcPfy6GpZf/25Xc++ovfn7jw69Ro+h+vp9LNc/380eN3X7ix7ZUTHz317JHTR9raOvbM5+e3ra1jz9BtD//fB373p58c6xnYPV/b1+Bwuv7984N3F7N9Ver7yj7wHElX1R/rGdh94Hd/+snQbQ//300t+7eX8piTTy5Mfu3leC+5DpiLuVzM32f7Ggu9HAfF/H6GcLNSL0f338m+dU/jgWLDj4VoPlfq9riQl5eSSnjfO1s7Gpbf+egvfvNu/1Nz/ZuV/Zwbtj752LNHTh955cRHT0X7COV87uz9r2ifYMPWJx9bkhvaAhEAMq2mlv3bT/RevX986G8I+efyy/53umArNc11hVXyRdevW5lMT3zeXK8xFWoS1Vfm8+D78KH2vk2fqXtk9Yqa7pmD0nwVkoSQDG91X3qg1IMLKs/kCsAQSuvedz01HM3bsyCaWvZv77v88aZCb78imegeS4c3F+M6m8sKwLa2jj0H3+n95Ssnzj91PZVunq+d3Pmwaln6s/ne8+9PXPh1sdUvMz3uTNvr6WXf++HvT1z4dRQUzffyiN7r9VS6+Z9//f7PD77T+8u5/m6PDqD+9bc9P5+PYDnfe85uGlKu75/ldz76i3/+9fs/P3NpeNtCfG6iILD7wo1tv/3jxf9Yfuejv/BbTaHbbzG/nyFkuv9ubqx7bqbbney9drbY/YkQQug+d61toU8qVrJSfncWs4Vu1BNNsTOfJwmbWvZvP/hO7y9/827/U8VWMs7G5esjzb95t/8pvyHzRwBIXjtbOxpOfjDww5H0aP34tbkq9KZr2jE5EMw23XX5qgUn3vbCYCqR/zHHLzesvuXkfB989xzfd/Q7X934xIrksu7xZRImvefcwebSrgBMTnj/l6+PNN8c7kkMTK4AjD4rWxpvfbmYHa6hVFXUDGRBRM0/Cnuto3PefXwuzUUF4ORgZiG/8+Zq5/racOL9ydc1tezf/tNXTz+RPZSnHI87nba2jj1vnvrwZ6nR9D9WSsBam6wO3RdubPv9iQu/nqsz/9lVlnO5nudTVJ0RBbmVsi5DCOFYz8DuN099+LO2to49C/ndEndx2I6L+f0MIfMbuqXx1pcL+Q0tZX8iGnEyV5W6cVDs785i334X8nVG04OcuTS8bb5eR/S7Uuyc3uVa1rXJ6k9+Q4SAc08ASP6NIxF2nLk0mDWPxuSwKldYl+tvIRTWvCOEmTsAl3L/zJCAhTj47uxsf+E7X934xMTlkuu9pWZYnktXbXIsvNZ18WE/CPF275a1B4udU+RE79X7F2K72Nna0VBMM42VyxJX5mP+0blS7grASgtm5utMf3RSbT6G3UbPF1WJzefZ/GI+wyPpqvrozH85q2/a2jr2/PaPF/9jvpb1dMpVORMdFM7ncLBi1+fl6yPNB373p5+cXva9Hy7Ed8tSsNCVSeXYjrvPXWsrdttae2vte4Xefu2tte8V//lIBiebbb+V8Dq7egcejPaP5uPzON/DjKf7nF9PpZuFgHNPAEjeL4SXjvXuHUpVhZm79mabTdVfmOGxU0XcP2MoVRU2rFn59kJ2ku3sbH/hvi23/2Di651pzj8hYLaR9Gj9yQ8Gfmh4RnxFzUCKuU9WM5B5VWzzjy2Nt7680B2LZ6OcVTrRWeZSh7/Ohfl6Ha939T+TqXacewsxfGg2y/9Yz8Dug+/0/rIc3/FRd+1KeX/lqJyJQvPjZ/+rotdnFOqmx0YfWn7no7+o6A1vkVrsFYCn+q5tLLbKaEUy0V3I8N/I5sa650rp/lwJcwtXonKOYlABOL2mlv3bX+u6+PB8nSQ8+E7vL4+fvVxRvytCwLknACSnrt6BB89cGrz5Az1doBdCYfP1FT8EODNX2HRdcWd+zNrkWPjWPY0HFnp5bm6se65l/eoXJ55RyjeUOnt5EzlzaXDbQs75RnnkmgMwhNk1A5nv91Bs849iKhcqUbmqdDZsffKx17ouPlxp1UtzdaY/u/JrfD7d6rI+bi7RTv18Dh+arWhI8GxDwLa2jj3/+tuen8dp4vqmlv3b3zz14c/Gm7FVvqhJyEwhoCHAxVvsFYDnBm7sLfY+t61KflRM+HT4UHvfZ29f+W6xz3P5+kiz/cyp21vzuuVvFxPAxmH7XajXefKDgR8WMzy+VNn7CeU83izXchMCzi0BIFNEZx8y/zfdPHwTh6xmDuynG85a3HWZucKmu0+++2de91BqNKxILquIifejzsD3NNW9ON5JOV+gqfpv6nLJ+Omrp59wdnZxyzUHYKS0ZiDp5mLmnJqtUpp/lGvHeaGU4yA9O/yrtPc3H3MAnhu4sbdcO/XTVZRl79QvtqAgCgFf7+p/ppT772ztaPjpq6efKMdrGUqNhqHUaKhJjF1ZkUx0Z/9Xkxi7kn2buf6+qbSK2WLW54neq/dPN8ejIcClLdfFamdrR8P75wfvLrb7bykn8u/dsvZgKZ/PhZxbuBKtXlHTvekzdY+UaxolFYD5bdj65GPzMQdf9hyDs3mcyb+TG9Yse7t53fK3o9/J2f5GXr4+0mz019yosQiYLDpQqU2GMH1l38SgL3NgPx5srVuZTGeadIw/Rua67AAg+7p83YULmTswhFzVf5U08f7hQ+19O1s7vn9lcHj91LkVp3tfRC5fH2nu6h14MITwtKWxOOWrAAzh5uTddz76cjHDFodSo9EO+7wM848mL69NFvba7tuydtE2/4jM9iC9ra1jz4Hf/als4d9QavSTnfOaxNiVZTXV/fluG819F+2E5tqu5inEuX++d+rL9Xz5lvFtq5If9V3+eFO0XrPXS6mi4cB/c/eT75157/Givudf7+p/ZrZB2Ypkovu2VcmPmu9Y1RnN2xl18D3Vd23jXQ2rTkeNAjY1rlr/x7MDTd3nrrVdvJb61PVUurkcyyB7fT575PTPZtMwptjPzPDI6Npyrs/B4XT9a10XH97b1tGzkFOxxMlirgDs6h14sNjP6MpliSsne6+dLfa5xtLhzdUrarqLmf80Cq2/1rJ/+1xM2zF53dUmqyf8Ns3F5dmoSYxd+WLzbc+Xc1moAMyv2LkxS/V6V/8zpU4PEv0ubFiz7O1cv5OR6Hfy3MCNve+fH7y7lHmIo5OCjvvKTwDIBDcP1O6vTY7dvGZy4JctV7Xf+G0vDCanhHqTQ8J81019zKjKMDtAzPX8mctDqaqwekVN9+bGuufOVNDgu8OH2vt2tXZ8+9kjp49cTw03j7+PmZbnUpdZFrXJzBwtO1r2v7GY51RbyqarAAwhc9b++NnLu0MofIjtXO6wZ7t5QP5AoTtNi735R+Rz6+t6Sv0ebWrZv/3A7/70k/KEf5nvxeZ1y9/+YCB19B/u2/iHqMI7V8i6s7Wj4VTftY2j6bEvvf6fl+qSVeFvo2GU2etwroO5iSfV8st30Db5wG5FMveu22x26ifbsGbZhGWcM8T+OIT/dXMZv3ryw2+2rK/bcKL36v0j6dH62fx+1SarQ7Gh0WxC1qHUaFi9oqb7i81rnt/cWPfc4UPtfWcujv+95/gnF/tuXu7Lvr42hKcfau1oqEqEHUdO9O96//zg3bMNIqNKztk+TuZgbSzc07T6xa4PBs98ddOn//2uhlWn852U2Jljfc4mgKxNVofB4dH6A7/700/+V2vHlO3oc+vret7qvlTQXG3Z4WQxZjpJkM+qZenPFjp/YykHt6W+rnUrq8vSVGYh9F8d2lrs9tvSVFfSHLqHD7X3ffbOR9891jNQ1Gcoa27hsuxPHD7U3ld/56Nnm9ctzDIvtcorWvbFnogp5DthMZjv19nUsn/7r/5wfluhc0tPfo2Fhr4btj752G/e7S85/Gtet/ztb93TeKCzs/2FPL+Tkei7/uhDrR0NXb0DD77VfemBYn/Tov2BrznuKysBIBMcOdG/K7Pzni3/MNuZh7FOF+qlprl97sv5KwUnXldp1X/ZDh9q7/tOW8cTEw+Kc70fcrmeSje/evLDb24s084ZlaWzs/2FFbd874liDqjKvcOeT7HNP0o9cKk0pVYA3gwxflhoxeR0ahJjV7Y0rn75jrrlB6IAo7Nz+vvc/P7vCyEc3Zh5PT8+1Xdt47mBG3szQdXcD0euSoQdMw15i4KAlvV17967Ze3BydUu2ZVm+Q7mbs59N6vwryYxdqVh9S0nN32m7pFil/HGEI7e+HMIX2vZv/3Vkx9+MwpbS309g8Pp+peO9e7dlSM0yqXQkDXX5/SeproX76hbfqDn+L6jpQbdN1/jCyGEFyYf7OQLbKfT1Tvw4GyHgtUkxq60NNV98pm58ef2vp7jOQ/Ucq7PL2/uaLijbvmsPy9RCHhzaPffZf9tLB3efOjejfdmV1fm+/fNUx/+bCRV3DD6dStD+vMb131jpseezb9VibDjX3/bU3TTmYbVt5zc9YXGb4cwsbq0kH9DCOHwnxfX70ipIf29W9Ye7CzxvWZOKP5XUd1Ua5PVofvctbbaMlYcfXnz2u/P9/I+fKi9r6ll//Yzly7+R7H3jYKeL29e+/1yb2cqAKduby8d691byOtZvaJmSoV6JNpP6L86tPX984N3D6VCc57P4MOlhn9/c/faH2xurHuus7O4Y+ubvytP72jZ/0Y0n22xofzNuUMd95WJAJBPZA4gTuX4oUxN+jcytfJu6uXJj1PK7WZ6vqnXRfNuVVL1X7bOzvYXvrL1yaZXTpx/KoRMt+La5HSBKNnbRnps9KG2to4/GFIUT19sXvP8b97tf6qYRhvl3mHPpdjmH7M5cKkkpVYARl1vZ3cmPRVa1q/+JKDpCdMHGNPJDgSjoCo9NvrQXAWBq5alP/vz/+j5/1xP5a56jQ6ymu9Y1RlVnuXaXrIrzf765uvO/ns55r5bkUx0f7H5tufPvPf40z0XS1/GPcf3Hd0YwtGmlv3/fvKDgR+Wuv6LGfpzszL37mKfJwr/bvz5n/6unJ0oooOdh1o7nnu9q/+Z988P3n1zOFRBB02zOUjL3q6iKo1SPzPZn5e9bR17XjrWu3c26/NYz8Duv/38/gPZJ0Wywt1Pqivz/Rtu+V7Rz/vR9bGBrIrHGZ+jlH+bWvafLWUd1a9cdraY9z/p30WnmOkzIqtX1MxqHu+xdHhzRTLRXWyFZt/ljzeVc1TBQhQj3JwSYm8pQ/lXLktcKee8f5O/CxaD+XydHw8N/7cLgyGRb4qSlcsSV+67e+2PclWoR7K/Fx5q7Wj4ye9Pf2/y9lD6CdlU+D/fuOt/dna2vzCb4+qe4/uOPtTace+zR04fKSYErE1Wh+NnL+/+65aJvx+UThMQPvli+Omrp58YSk3eJKarSsvXsGKmTsDJIm9X6OOO3+6zt698t9Ln3Trz3uNPZzoDV938oRH+zSyzTEbSo/VHTvTvMjHs4jPdHICRUpqBnLk0vG0um4GU0vyjEhoQlUMpFYBtbR17jp+9POuKtPu23P6DG3/+p78r905fz/F9RzcO//iRr21Z940Na5a9PRfL7cJgSOQb8l6TGLtyT1Pdi7u+0PjtM+89/nShv1c9x/cd/e7XNv44+/bR3HelvMah1GjYsGbZ2zvu+vTfl3OoV8/xfUd3faHx2/c01b1YaiVF1OV7pu/5qDK32MdfvaKmey4rcw4fau+78ed/+rsdd3367yfPjzSd2XSBjELNXV9o/HY5T5B1dra/sOkzdY/MZn1G783v9uJu5FGqt7ovPVBs84/Z7stH3YCL3WazRhUsWl29Aw+WMiXEUGo0fGXzbT+aq6BFBeBU+fYTopM5X9uy7hvF7CccPtTet3H4x49k/waUWlU+lBoN//uvM+FfOd7r4UPtfTvu+vTfr15R013c66gqqYM4uQkA+eSLYTyNn9yEI9flEPIHVYUGeLO9Xe7OwDWJ6it31C0/UFlLOLcvb177/eZ1y98e/6HRAbhQx89e3l2VCDssicVlpjkAQ7jZDKTx1peL2QEbSo2Gf3vl9Ofn6nUX08V1KDVasVMQlKLYLsA7WzsaXjrWu3fqCaXCbViz7JOd3rl8b1FQVUxAM1s1ibErX9l8249u/Pmf/q6UbST7Pk0t+7ef6L16/2zm89n0mbpH5uJgLwrAZhMaZTV+yqvUIerz9RntOb7vaKHP09bWsafv8sebSl2f9zTVvfjlzWu/Pxfvq+f4vqNT91kKV5usDmcuDW+baX0uBYu5kUcp2to69gyPjK4t9n73bll7cLbPXepjFHLyoZKX92tdF0uqIr6nqe7FufzdVQFY+HdEdDJntr/PO1s7GooN4KPX8Dd3r/1BuUdb9Rzfd/Q7X934RDHHu9F8304glYcAkNDUsn/7xB+K7A9kIRWAhVwupaIvebNaqNDnydjSeOuimXfr8KH2vl1faPz21BBQ9d9MhlJV4aVjvXv9GCwuhVQAhpDZaS92ouBkVfjbppb928v9mne2djTMNI9btrg0/4gUG7DMZv6yqCJtrkKpXA4fau+br7A2Cv/KdYBVTDA9eTnPZfiXbbah0VwdiFfiZ/SlY72zWp9zFf5lf1aifZZS7j+UGg39V4e2ztfv9qdWVNVV2jqOtuul5MiJ/l3FbtezHf4biboBF7t+Ll8faV6MJ5mjEV2lfI+sSCa653q+QhWAhT13ND1FOb7Pu3oHHiylUdFf3FLzL3MVBnd2tr+wYc3KovYLBofT9U4glYcAkHBu4MbeiY0/Cq0AHL9+3cpkOv9Q4Ogx81X0JbMeI/t+qUnVQjMNOc48XjnOGM6nw4fa+zZ9pu6R1StqupfaWeHZqE2OhTOXBlUTLDKFVACGcLMZSDJR1E775esjzXMxbKeYIYZDqdFFdRKiEMVWAHafu9ZW6gHu6hU13fMZ/s2naGhVuXaoZ1P9V5usDvO1nLN/40q5/0wH4v1Xh7bGIVDJTNg/WFJwHn1u5iPIjtZnTWLsSinb3bGegd0350Sccx9dHxuo1O+CpaLYE2jR8inXVD6HD7X3fbF5zfOlLPMjJ/p3LbblHU0JUez3SE1i7Mp3vrrxibn+DlEBOLPoZE65Pn/d5661Fbv9r0gmur/7tY0/nsv3+a17Gg8UO91PsZ3EyU0AuMRF8zRNvDZXRd7kyxMr+vJ35831eJMDw8x9Mo9RzJDiqXMKtqxf/eJibAzRc3zf0R13ffrvi/0iJITXui4+PBdVXyy8Ynfao2Yg5X4dxTb/WHtrbYW2HypNMRWAbW0de85cGtxWyvMMpUbDd7668Ym4hn/N65a/vbmx7rlyPWY0qX4pr+W+LZ/6wXwu557j+46WehAefQbL+XoKrUSeT+cGbpQ0bD6acmC+12ex0zREapPVYbHPrzZbS6kCsNQ5Ost5Mv9z6+t6il3mtcnq8P75wbsX0yiTDVuffKyUef+iyvT5OH5SATjzuijnyZyqRNhR7IiM+ZrGprOz/YVlNdX9xXwmT/Revd8xXxm2C4tg6Zo4T1O+obgh5K4CzNfIY/zyeMg3NcCbGhjO1EhkussZNYnqK4ut+i9bz/F9R7+y+bYfZd6beQALNZIerT83cMNQ4BiqTlS9UWzVUN/ljzeVsxlIKc0/yhnyVIJiKgCPnOjfVWqIMRdzzVSKqOKuXDvUpc7pE0KmWmwhttHNjXXPlVIFWJusDhevpT413Xd8sQdrFwZDopJCqJ2tHQ2lVHNGQ8UWYn3eUbf8QKlVnW91X3ogjp/zYtbbUlHMCbRIuYb/RkoZURBCCNdT6ebFMspk6nROhW+LWxpvfXmu59uNqACcfl2UuwFLqZ+/+fpNKbZJz+Bwun5T46r1i2IjqmACwCWsq3fgwanDTaYL2XIN5w15r7swmErk7/ybfbmw6r78QWHmvy2Nt7682A8eNzfWPXffltt/MHFdMNXEeRI1BFk8iqm86Tm+72hqLPyq2J2Dcg7bWcrNPyKFVgDOZkjqQoVS82EoNRpa1v/Fi+Xcqa9KhB2lTKq/kNvobIbiTXcgXkrFbTQXXaVsI129Aw+WUs25clniyr1b1h5ciPVZyvdzZHhkdO18VHGYA3BhNbXs337xWupTxX42yzX8N1sp3YAr7Xsin52tHQ0nPxj44Ui6qujvkLnuhp5rmS4GC/E6y70ftLO1o6HYz1/0WZmv35RSCncW49D8SiMAXKKi6oFMpUYUouUK+goJ6Irp1hsppvvvuIlVhbP/Eqk0hw+1921urHuuZf3qF22lhUh+8p+GIItDoXMARv7hvo1/KGZofDmH7Sz15h+RQisANzWuWl/qkNQ4BqfZ20W5O9P/8exAUynLeqGD1lKrAIdSo+H1/7xUN5vtc/L3xIneq/eXs1p4NkoNGRpW33JyIU98fnXTp/+9lKlLRtJV9fNRgWkOwIU1mh770kIP/42U8h28WIYcvt7V/0z3hRtFT70xX/P+TV6mi8F8v8652A8qpfnHUGo0lHt/ZTone6+dLXYf/8rgsArAWRIALlGZL4Xh5trkWJg6x1/23HyFdOANM/y90FBwuqq/zHXjVYVhwv03rFn5djmHCyykw4fa+768ee33N6xZ+fbUdUFuqXDm0uA2VYCVr9i5tzo7219oWH3LyWLuU67ufV29Aw8u5eYfkUIrAEsZajIXc+NVkmi7uKth1elyPm4pc13OVWVNMQ4fau+7bVXyo2LvV5usDp+pS27PFeyf7L12tpTXMjicrv/pq6efWOiD+1KaJHzy2bljVedCvvae4/uOFjOHU/ZrX8qTuS+FCsCo+UCx9yv38N/IXQ2rTpfSjXy+wupSbdj65GPHz17eXcr3x3zN+zf5eReD+X6dc3ECuf/q0NZi38fqFTXd5d5fmelzuaymur+Y1znTlCDMTAC4BDW17N/+yonzT41fM3mOv+zQrZj5+Uqdy2/6qr9CKgi/dU/jgThVj0Rd9lYkl3WPLwPyy2yrP3319BN+FCpbsRWAIYTQfMeqzmJ3YsrRNKCYbrZxbP4RKaTCqtShJrXJ6vDBQOpoXKv/ou2inO8vmpeylBChEirlS/k8h5CZ3zNX99hSD+xrk9Xh8vWR5t+fuPDrDVuffGyhfjtO9V3bWEqVVKVUHJcytDKEEK4MDq9fqr/XS6EC8FTftY2V1Hzg8KH2vuY7VnWW8r1ZqXNWRvP+lXKMsFAn3lQA5t7uy30CeWdrR0OxlXILNRqj2JOC11Pp5vnqJB9XAsAlaHKnufHLuebkK2SevlzXFTMMeOLzTR3mO/l2qQmvPU7Vf9l6ju87+p2vbnyiJjF2ZXwZMp3rqXTz6139z1gS8bK5se65YocI9F3+eNNsKnva2jr2LPXmH5FCKgCrEmFHsUNNQsgMQfrqpk//e1y33RXJRPdchDSlzhdXCb+VpS6PfO/58KH2vvqVy0qqAqxNVoeRdFX9b97tf+rgO72/XIghwaVWFzWsvuXkfFZq5FNKqBx9R8/1QZw5ABfOuYEbRZ+Eq01WlzSkv1DViao3Sm0GUinTBUSief9K+S1YkUx07/pC47cX4sSbCsDcyn0C+VTftY2lniicT6X+fmsEMjsCwCWmra1jz+RJ2seHAU83pHfydeMVexOH9OWu6MvcZmo4OPH6zO0nNg/JNvm6VKhNjoXmO1Z1xrV6pLOz/YXxzsAU4vjZy7srbUeN2Tl8qL1vS+OtLxfbDOTVkx9+s9Tn/LdXTn++mOYfCz20ci4VckBW6DDhyZbVVPfHcdh0tnK/v1ICo6jCoBK20bsaVp0utXtsvp3+O+qWHyhlLrpIbbI6dF+4se2ff/3+z3tv+d6pDVuffGy+hgaXMhQ2Gv5bCeuz2DmcIqUEF8UyB+DCKHVY+4pkonsuT1L0HN93tJQpCIZSo+HfXjn9+UpaxtG8f8Uu44WY9y+bCsDcz1UJJwrn6nXMhT+eHWgy4qt0NRbB0rGztaPhpWO9e0fSo/WZ7HdqoJZ7PsDprkvdHNI3fRffzG2mVvVNnNNv8muYuRPwiuSy7s2Ndc+dieXAu4wz7z3+dHLZ9+pSo8P/qAqwMDc7RC3qjtBxVewcgJF7t6w9eKL36v0j6VBfyO1rk9UhWRX+dmdrx4+L3dHd2drR8OyR039bTPOPO+qWH+gJ8VRIuBfNNVPsTvNnb1/57o0/x3d7r6T3t/bW2vfOVMDrOHyove+22x7+qPvCjaK2l9pkdd5tsef4vqNb7nz05WM9A7tLPXCL7nc9lW7+zbv9T61clriy5c5HX157a+17mxvrnpurA+Yrg8PrF3NF2F0Nq06/eerD/pFU8YHepsZV63uOx/fzP9O2FlelNh9oWV835yfSmu9Y1dl9oX9bsd89pe5PzIUNW5987JUTH5X0XZeoqn52IRsHqQCcakUy0X1Xw6rT5fwu3NS4av2v/nC+6Pu9evLDb4Zl3/tmmEfJEk4WvP6fl+o2N1ZkgfeiIABcQrp6Bx48c2lwUpeoZI7LueYAzHfd5HAuqvhLpi8MJhO5h+9O11045Hy8fI1K4tw5Mtt3v7bxx6939W+YzcHNUnKi9+r9e9s69izkTg65lTIHYAg3m4Hc9vDeM5eGC+50l9UMpKjtIGr+UchnbSg1Glqa6mLZ/CPyufV1PXNxkmUoNRru3bL2YOef47nchlKjcxK6FTM3ZaQ2WR1e/89LdZUyaU5myE9xXStnahzx5c1rv//++cG7C/3szrS8RtKh/uZv7u7Xui4+vOXOR1++o275gbsaVp0u535HqXNnztXnslilBrohlF45HIfvhjgr9YTQfJxIq05UvbFyWeJKoScTI6XuT5RbU8v+7W+e+rCkOQk3rFn29q4vNP748KGFe/0qAKe6bVXyo3Ify94shChaajT9j/O9rJdIU/SKYgjwErGztaPhre5LD2Tm+8sVuuVrBJIt3zx+Ycp9M5V9k+8bpnmOfIFgvjkIk2FFcln3YilVnq2oM3ApE50vPckwOJyuf+lY717l4ZWn1ArAEOavGUixAUtcm39EZjpIL2Wy6UipHVwXi7mYz6qUwCiEEP7hvo1/qJTlUspnZqbP5OFD7X3f+erGJ2YzFDjfc46kq+qP9Qzs/tUfzv/HwXd6f1mupiGzeYxK+uyUMofTfBxgmwNw/jW17N8+eaqhQjSvW/72fMxp2XN839FipxSJlKO52Gy/L05+MPDDYpsGDaVGw4pkonvTZ+oeWeiiCRWAU5+n1DlsZ6JghHxUAC4Rr3f1PzP1rHix1XnTVezN1PyjkL8XNuQ4uvzF5jXPx33uqGyHD7X3faut48BPXz39qcy6HAvTDQletzKkS622Wrwy20dtsjqcuTS4rat34MEQwtO+ASrHbLbJ6kTVG6tX1HQXOrQommj+ay37txf6XdHW1rHnwO/+tKnQ82OrV9TEfhqCQiqNLl5LfarYnc1yBjWVqpJCmkp6La//56W6uTg46exsf+ErW59seq3r4sMj6ar6cj529Hq7L9zYdubS8La3ui898MWtTz4/2+HBwyOja4s9H1+TGLtS7iFj820+DrDNATj/RtNjXxocTtfXJotfHqf6rm1satk/54XKr5788EwpVdTF7k+U209+f/p7//XxyLZSXnulHDOpAJxqLkYKlHpSdjG4OV3AhptNpGI/CnAuCACXgKaW/dt/f+LC/ZnAKAqNpgvlZuoCPN11pd6/mMdNLYm5/3Lp7Gx/YUfL/rO/P3Hh17mGL2SHfksv/AuTtpUQ3uq+9MCOlv1vLKWgOM56ju87mlr2vV8NpUb/sdCds8HhdP3NpgkFbQNHTvTvKvTgZb7mLFpoM1UAnuq7tnHVsvRnrxfZq2hZTXX/Yg8xpjMXAefN+SmLvt9sKm/nwpf/as3AKyeKnos/vH9+8O7GGW5z5r3Hn/7K1ifDa10XH858lst7IDd5rsDZBIGn+q5tLHdQuRBuVnTuLnY5ltIAJQ7iXJnzVvelB0oJqM5cGt525tIH/xFCMmSGD4+FEEIYSlWV/XJNovpKKYPgit2fKKcNW598rKfr4kPFLtuh1Gi4p6nuxTPvPV4RJ8NVAM7Pd0GpIwVYGgwBjrmdrR0N5wZu7M3fCSjfMNxir4sUM3x4+qrA6boLx7nj5kx6ju87mukMPNXSDP3ybdchXE8NN58buLF3iS+MWPmH+zb+oZhgpTZZHd7qvvRAIUPtih26FDX/iPsyL2QYq++eqaKAs9yPm6kYK06lrZ+5GBqd7cx7jz/9tS3rvrF6RU33XB7I1Sarw/VUuvmVEx899eyR00fKNTR4sZmris64imsFYFtbx55Svp/GJT/5XEUjg+bi8mxC9+5z19rm+zPe1LJ/e6lVzc3rlr/95c1rv18p24gKwKnfBXP9ewiTCQDjvoITYUfmgDaq/CskvCvmukKG9oYwXXVfJujL1SE4+4Bl4utdCgfd0znz3uNP37fl9h+YDzCf8W3lRO/V+9vaOvZYJpVhtpVInZ3tLzSsvuVkMffJmrx7WtHQpUIecyg1GrY03vryfMxZtNDmaqL+VcvSn/WJWByfu8WyTWXrOb7v6EP3brz3L26p+ZeaxNiVuf69jCoCX+/qf6apZf92W9305mP/xRyA8yuqoI/rNlubrA7dF25suzn0cF5E8/6VEv7VJMauVMK8f/P9uV9Kr3MpcrJp9gSAMbaztaPhp6+efmIkPVqf+xbFzPWX77qMiSHe5ErB7NtMDR4zDUNmCiTHL7esX/2iIZ0hbG6se+6eproXpy63yjvYm3/j2+pIerT+yIn+XRqCVIZyVCIV2wykNlld0OTdxTT/qE1Wh7W31r63FCqR5+rs9LXhxPs+EYvnc7cYtqnJDh9q79s4/ONHvrZl3Tei38u5rgg81jOw+81TH/7MiaeZl9VcMwfg/NnZ2tHw/vnBu+N+cF6brA7zObKkq3fgwe4LxXVMz0iFr2y+7UeVdrykApDZEs7OngAwxrp6Bx68nhrOmiw/FcbDoujybOb6iySzQrxsE++fOQAppFpw8vXjahLVV+7dsvagtTveGXjDmpVTOgMbjhcmbE/Hz17eXUgFGHOvHOH05sa651avqOku5j59lz/eNF1VTltbx56+yx9vKvTxViQT3Zsb655bCutsPqq14qiSKhwr7aTQv71y+vOl3O+2VcmPSrlfz/F9R2/8+Z/+7q8/95n/0bxu+dsrkonuuXpvtcnqcPn6SPOB3/3pJxu2PvnYXDxHpVW2ffmv1gyUclAW9w7q020jcVOVCDuK7U67WL1/fvDu+Tip3NbWseeVEx89Vcq8fy3rV1fMvH+TX9tiIGSqXMLZ2RMAxtTO1o6Gt7ovPZD7r5OH72ZfLnWuv3z3K/Y++R9rKDUaGlbfcnIsHd60hjMOH2rv2/SZukcyYUjKAsm7rYfw0rHevaoAF145wunDh9r7Pnv7yneL2UHLmrw7p3975fTnixn+u5TmITU/TWnmqsJxWU11/0J87ipB/cpls+pk3HN839Haiz/67zvu+vTfJ6sT/7IimZiTOQJrk9VhJF1V/1rXxYfnIgSstMq2Upp5LOUD7Di+95eO9e5dKgfm11Pp5q7egQfn8jmaWvZv/+mrp58o5b6VNu9fNhWA86PUk2WLgXB29nQBjqmu3oEHL18faZ7YyTIK01I5rkuWcF2+62euGCysA3AIEysWq8K37mk80Nm5NJt/5NNzfN/R77R1PHHgd3/6yUg6VT91eS9l49v6mUuD227usFXcGVGKd0fd8gMrl129P1c37Hy6z11r29XaMaVTZ1PL/u29pz7822KbfyyVVKyQCsCaxNiVYucoup5KN9+cS8l3eoEOH2rvC7d8r6T7bmpctb5SOi5/+a/WDPzm3f6iDrLKudPfc3zf0Y0hHN3Z2vHjrt6BB7vPXWvru/zxppF0VX2mA2l5Dv4Gh9P1r3VdfHhvW0dPZ2f7C5P/flfDqtO/P3Gh6M/Op1ZU1fnsFLacKvF1xS0oa2rZv/3NUx8uma6jQ6nROe1gvbO1o+HgO70/zBzHFbetVOK8f5OX3WJZx4tZ/cplZ89cGi5q6HhNYuzKVzbf9qPqRNUbi+E93tWw6nSl7NMsNgLAGGpr69jzr7899VTttDlQKcFfvsu5bpsK61Ym0+NVB6kwu2AxFZrXLX871w40mcYIe9s6QiYELDwQib/xatKhVFV4q/vSAzta9r9hDsnFr+f4vqMNtz18stAdnEmTd0/YMd7UuGr9r/5wvqAd7aHUaGhpqnt5KW1Dn1tf13NmmoF6dzWsOv3mqQ/7R1LFTf7uLO78qqSh3KUePK+9tfa9M2V8HTcPkp+uDeHpr7Xs3/7qyQ+/uWHN8u3RnFuzDWpqk9VhcHi0/qVjvXt3tXa8meugfFlNddGfnUqq6LwZVqyfi++W2TIH4PwYTY99qZSwarGqTVaHE71X7/9ay/7tc7EvEM37V8rQ3/vuXltx8/5NXnaLZR0vdsWezBpJV9VXJ6oWzTGS8K90hgDH0JET/buGUlVh5kYexcz5N90Q4NzVfpkd1MLn98v/vJnbfeuexiXd+XcmnZ3tL3xl820/yjcUONccUEupWUhtcixcTw03z+fkzRS2HZaqlGYgudZ/sUOXltq8VYUER7etSn5UykHtdMOyF7u5mgPws7evfLfY+1Ra4HBlcLjkwGiuXlPP8X1HNw7/+JFdX2j89t9+/vb/cU9T3YvRXIGzWX7RyYdcQwZnU6VTSZ+di9dSnyrlgPlk77WzlfIe5lOcgrKdrR0N3eeutS21dTjTtCKlamvr2PNa18WHSwn/7mmqe7HS5yZeiN+iUn5vFntIX+p+6qbGVesX9RunIALAmGlr69hzovfq/bXJsUl/yRX8Tb4cCriu/PP7rVuZTOd+rPHXvWHNyrfN/TezM+89/nTL+tU5OwPnqhhYGs1CkmFyQxDdGRdOObe5UpqBTJ68u6ll//Zimn+sXlGzZJp/RGYKXUoNMWqT1XM6jGqhzdUcgGtvrX2vlIOTSjlIb2rZv72UwKg2OTYvgdHhQ+19UdOQh+7deO99Wz71g9UramY9V+Bb3ZceyDUP7WIPdE/1XdtYSvOH1Stquu9qWHU6rp//xbL+yrH+S6lWW+xqk9Vl/07d2drR8NNXTz9R7JQA0efpy5vXfr/S5yae7+2k1Lm/F/v2XOrJMk3flgYBYIzsbO1oeOlY797xH45im3mUpyPwzA1DJl6fvzvwePVf8x2rOpfKhPuzFXUGLqYScGnQEKQSlHP7K6UZyOTJu0fTY1/S/GN6hewQNt+xqrOUx37//ODdPhXFKWXHvjZZHS5eS32qUr73rqeGiw6MViSXzXtgdPhQe9+Z9x5/+qF7N977F7fU/EupjxN1Bs7VjX42gW4lrM9SK0bmY5J6cwDOvaU8quLMpeFtTS37t5fjsW4Opf/l9VS66O/GmsTYle98deMTi2XfZL5/9y9eSxU9P+ViD+lLOVlmWpalwxyAMdLVO/DgmUuD26bO0ZcrCJqpki/fdbkbdYzP9zddlWCuuQFDmHqfiZ1/Vy5LXNncWPfcmSU16K50hw+1921q2f/IxWupn+Wak2VyBda6lSG9NCoBx525NLjt5oGYOSXnWbm3tWKbgUyevLuYCrSl1vwjUsg8Xa//56W6Ug5qr6fSzW1tHXvM71q4k73Xzmaq/Itb3pevj1RE05XR9NiXhlJVobaIflVDqdGwYc3yjxbqAPfwofa+jSE80tbW8Yefvnr6iVIO0muT1eHIif5dYdLvzufW1/X85t3+oh+r7/LHmyphfR450b+rlOGK9SuXnZ3r9WkOwLm1s7Wj4dkjp+8u5bt/w5plbzffsarzc+vrev54dqBpIf89cqJ/1/Gz/7W7lPX46skPv7kxhFnPmVbqvH8hpEKiatmzfkNzO9V3bePwyOja4ivOF39Iv3JZ4kqx88J3n7vWVqtZYuwJAGPiZgeuB6b+JVcVYAgzV/IVct34Y+YP/6ZenjkoHL+uNjkWvrL59h+p/itO1Bm4kAOVpRX+Zba5oVRV+Omrp5/Y0bL/rIYgi39bL7YZyPvnB+9+qLWj4VTftY2/P3Hh/mKafyzFrmOFVAB+ddOn//23f7z4j8U+9lBqNGcoEgdzNQdgpunKsu5iJ93PmgNzQb/zus9dayvl4Kr5jlWdZy4u7Drt7Gx/YUfL/rNvnvrwZ6WEgO+fH7y7cdJ1J3uvnS3lQC1rDrIFW59RAFTs/WqT1WVv6LKYxKUCsKt34MFSPgdDqdHM5/m9x5+OTi4t5L9NLfvPnui9en+xQ29rk9UhWRX+dmdrx49nc5ySad7Y81Rp8/6tfvHLm9f++PCh+V//pXYxHx4ZXbuztaNhPo7tbjZ5qy/mhFO0bBezuxpWnT75wcDJYkLl6MTSXDW3oXIYAhwT5wZu7B0fUpNd8ZfrG2+m4cAzXVfKHIL55gicfNvx5xtKjYYVyWXdi6UdeaXp7Gx/4YvNa57PNxR46Up+Mhwrzg0IlpJv3dN4oJidtagSalPjqvWFDv+NDliX4smIQoac3tWw6nTUMKEYUTfFOA7Jn6s5AKOh76Xcd/IcmPOt2Dk3IyuXJa7MZQOQYvQc33c089tamsnL/66GVacbVt9ystgDzrmYg6xYVYmwo9Qhi0ttLtVscakA7L86tLWU91Jpc+n2HN93dFlNdX8p972eSkeV1SV/H/z01dNPlHLf1Stquu+oW35gIfdLSlluI+mq+lzTIcyFmycYi7bYQ/rDh9r76lcuK3oY8OBwul4jkPgTAMZA1Phj/JpcDTumC4HmqhtwoU1DcoeUtcmx8MXmNc87C1G6M+89/vR9W27/Qa71v3TnAsyoTY6F17ouPlyu+VsozFxsd2Pp8GYxzUBqk9Xh5AcDP/zpq6efKHQnb0UyseSaf0QKqQAsZT7GyEi6qj5Xh1TyW3tr7XulHKBcvj7SvJDLupg5N7Mtq6nur6RGYJsb654rJfDOFRYcPtTe98FAqqT9nDOXBrctZFOrIyf6d5XymW9YfcvJ+QgtzAE4d5pa9m/PNB0s/r3ctir5UaWdTPti85rnS9mWh1Kjs5oH8fWu/mdKaaIzlBoN3/nqxicW8hip1HU4lBqdl2YTO1s7Gt4/P1jSEPU4hPSl7ie8dKx3yc7ruVQIABe58cYfo/Xj185U2ZcrGCx3N+AwQ3ff6Z4jc31NovqK6r/Zi0LAyT9mS23ev1zb2Eh6tH4pT2C9EOZiuyslfDpzaXhboZUrS7X5R6TQyqt7t6w9WOpzCOOLU2oAVZusztuNdq7tbO1oeK3r4sOlDHOrtM/fbALvXP7hvo1/WLkscaXY+w2lqhasqVWpAVA0/HM+XqM5AOdOqWH+UGo0fOuexgOV9n6qE1VvlPIZnE0V+4atTz52rGdgdymfob+5e+0PKmHev1Kb+RQz/3KpunoHHiwlXI3W62JXnah6oyYxdqXY9913+eNNC3liibknAFzkxht/ZMuuxAt5Ls+28+/McwgWMy/g5McYSo2GLY23vqz6rzw2N9Y917xu+duGA0+WDCd6r97vh27+zFXlaaYZSPE774WImn8s1XVW6Jn6qBKzlIPbweF0/ckPBn4Yp6HAczUHYAizC6AuXx9pfr2r/5n5Xh5dvQMPlhIYVOrnb+2ttUW3Jsv3/dfZ2f5Cw+pbTpbyOvouf7xpIao6zw3c2Fvs3F8hZIYtLvWTu7XJ6nBlcHj9Yv6+e6v70gOlhCQrlyWuVFI1b+SuhlWntzTe+nKpv1/Ffgbb2jr2lHpCpHnd8rcrZURC8x2rOkuZvuBE79X75/Kk387WjobZTJEQh5C+5/i+o6X8rgwOp+sX6sQS80MAuIhFX25DqcmrcaY5AKcbGjzTPH3T3Xe6Cr+Zbj/x36V+wF1uhw+19+36QuO3VySX3Tw4T4WZwsClMkR4cDhdf+RE/y4/dPNjripPS93RmYmTEYVXAB4+1N5X6txotcnq0H3hxraFCKbmylzNARgpteIyOviazxMfsznYjdPnb7rvv1IPpAeH0/XzXUG7YeuTj02ceqbw9fnZ21e+6+RuJrhdrK+9ra1jz/DI6NpS1v+WxltfrsRq+sOH2vtKCfUj3eeutRW6HxnN+1dKgL5yWeLKps/UPVIpy7DUuVmzmhjNidK7KmfEpVFPqb8r3RdubDM1S3wJABex17v6nzlzaXCGL7dUnuuyA7dC5vrLd91Mt5nuufK9xpTqvzlw+FB733e+uvGJlcsSVzKh8dRK0ezQb2kMEc7MNXn87OXdfugWv2KbgRRqNgcFcVDMXD2lDqMKIbPTeaxnYPeGrU8+Np/vb2drR8NiPAEwlg5vNq9b/napFSs/ffX0E/MRGkUHu6VW/80UdC7UuitlCNt0w7E2N9Y9V8xcptmfm5F0Vf2bpz782Xwsi6aW/dvf6r70QKnhxXye3K3UOQCjz+B8NUIotz+eHWgq5fMcNdOq1Pe1ubHuuVKHAfdd/nhToc1ASp33ryYxduUrm2/7USUdH53svXa2lPtF01HMxW9QU8v+7aWccMoWl0Y9s9mmf/Nu/1OVMELK9DDlJwBcpKK5VzL/l3sOvdyXsxUy/99M1X/j/58Jj6YP+TLzAs70eLObS4r8OjvbX9j79b/8biYEnPrjliv0WyqVgHO1I8L8KbYZSCEqrVvhQijmDH/P8X1Hv7L5th+VuvMc7XQuv/PRX8xXmHHwnd5fzqaL40I5fKi971v3NB6oTY6VtJyvp9LNb5768GdzPQzr4Du9v7x8faS5lIOxhtW3nJxpnquu3oEHF+IgpZTJ5ZfVVPff1bDqdL71OZvuwpevjzQ/e+T0kbn83Oxs7Wh489SHPyu1acF8n9ydrzkAS91PKrVD6ULa2drRUOrw30pvpnX4UHtfqSMJCq1om828f1sab335zHuPP11Jy+yuhlWnSz0Rdfn6SPO5gRtlHWra1LJ/+8kPBn5YygmKbHGpADx8qL2v1KHttcnq8M+/fv/nCxUC7mztaNiw9cnH3jz14c9isTIqiABwEdrZ2tGQmXtltD4TnuXuopv7cgiFDwEu5LrxfyfO+RdCrm7AEwOmyUFh5jk2rFn5diXODxIXnZ3tL3xl820/yhcCTrZUmoVEOyK2kLk1l4Hy4UPtfamx8Ktynbld6s0/IsV266tOVL0xmyA2qgR8vav/mbkKp7J3LLsv3Ng2F88xl3MARjo7219oWb/6xVK3+SgEnIsd/ChcLXUYVk1i7Mqmz9Q9MtPt+q8Obf3X3/b8fL5C4xAyB/GFNhHKNlP301Kbu0Sfm+updPOzR04fmYvPTVtbx55nj5w+UmqYu3pFTfeXN6/9foiZuxpWnS5luH9tsjq8f37w7sVWfVyVCDtKDYAXw+9pqSMJCmmwVGplWjTvXyV+fg4fau+rX7ms5CrA6Le+HK8lCv/K8ZselwrAEGY3R3Ztsjr86297fj7fIzPa2jr2HHyn95e/ebf/qdisiAoiAFyMKy0Rdhw/e3l37qYa+Sr/Jgdt0w3fLbT6bzbzAea/7bfuaTyw1A+459qZ9x5/+iubb/tRpnIkuYSXRPKT/2qTYxqCzIO5DpRL7aaZj7lIi5/jp+f4vqOzqWQKYfzA4M1TH/5sw9YnHyvXQfLO1o6GKJj6zbv9T11PpZvn6kz/XM8BmL2Nzmabv55KNx/43Z9+Uq4AbXK4WsryHUqNhmKGug2lRsOxnoHdzx45faSc20su0RDYUt7TTN1Po6k6iu3cmO3y9ZHm35+48OtyLYdoff701dNPlBr+hRDCF5vXPB/XfbvbViU/ms+GPAsZGr50rHdvqdvAYhjdc7L32tlSv0+vp9LN+YZ172ztaDj5wcAPSxk6vXpFTXclzfs32dpba9+bzVx7J3qv3j/b35+2to49s/nNyfW64mK2IzNCCOGVE+efWn7no7+Y6xEDbW0de4Zue/j/PvC7P/2kXOuSqWosgsVlZ2tHw0vHevcWN8R38uXs63KFcqV0/y0k3Ju+OjAE1X/z6cx7jz/dcuejW6cbirBuZUgvlbkAh1JVISRH628OyXnBFjI35npIeWdn+wsNtz2898yl4VmdAY7OuN/VsOp0z/Glvc6KrQAMIfP9suG2h9tmOwn35esjzb95t/+pt7ovPfDFrU8+X52oeqOUIYQ7WzsaunoHHjz4Tm9btG1Er2uxn+nvOb7v6Fe2Pvmj37zb/1Spy3okXVV/rGdg9/vnB+8udTlPXMaD2zInVkp5PamwesWy7s2Ndc+dKXC2sOh5rqfSZdle8rkZbD5QSvXfymWJK4XMl9XZ2f5CYtn3Pj/08cg/lrL8MnMChvrfvNv/VPe5a23NW5/s3NxY91yx4cF0n5liDKVGwz1NdS8uxNDF+ZgD8PCh9r76Ox89G0LxVUfRiY57mh4NX9689vuFrKO2to49N7+T53157mztaHj2yOlPlXLfSu3+O1nP8X1Ht9z56MulDtPNtw/5elf/M6X+Ht62KvlRCAs/F1q+79LNjXXPvdV9qaTvxRAyw6eP9QzsvjI4vP5bbR0HZpr2IVtTy/7t5wZu7D3wuz/dP5Kuqi9XYBSnCsByrKMQkuFYz8Dulcuu3p9Y9r1nv7rp0/9ert/Wppb92189+eE3D77Tu338M1IVapdyfcocEwAuMl29Aw9mdqwzH8bJH878VXr5bjfd9bluN11gmMxzOd/tJz5edHa8s1P133z58ua1378yOLw+307JUhn+mzlQDSGETBXg3raOPcXsgFC4+dimvnVP44F//vX7szpzWJusDs13rOpUjZypADxTwrTtu77Q+O3ZDBmM1kMI48HOymWJK8tu+V7/Z29f+e69W9YezA5UornVovn8NjWuWv/HswNN3eeutT175PSnrqfSzUOp0SkhRhzOMJ957/Gn72ma/oROIcs6Ws6rV9R033bbwx8137GqszpR9Ua+ZRxCCKPpsS/1Xx3a+uyR03ePL+PS99xXJJd177jr039f6mcv+32sXJa40nDbwyej93FXw6rTxTzuztaOhlN91zZualy1/qVjvXtf67q4qZS5pYZSo+G+u9cWXNH43a9t/PHEg6HSlkP3hRvbui/c2PZW96UHilmfM31minnf0dDfw3+e/8/FfM0BeLOxxe5S11MUvn/2zkffza46v6th1ens77OXjvXu/dffntrWsn71iwvxPdPVO/BgKd/nQ6nR0NJUV5Hdf3O5d8vag8fP/lfR6zOqZvtay/7t2Z/1DVuffOy1rov3l/o56rv88aYzl4b/IzopP9//Zr6XE90PtXbcm2sdHj7U3vfFrU8+X+pJqOg+3RdubDvwuz9tWnbL956Y/Bs/+bsq+p76/YkLN7+Tcw9qjE46F7vvGbfKs8OH2vu+09bxxD//+v2fz+Y3ZSQd6sNo+h9/f+LCQ9m/rdE6mu4zHlV4Rr+pR07073r//ODdPScurB1JV9V3X7gRu+VeqQSAi0hTy/7tb5768Oawk0J3rmfqAjxTVV4hlYBhhr/N1P038/fVK5Z1q/6bX4cPtfdtatn/yMVrqZ9FZ4WWTtVfbiPp0fqXjvXu3dXa8abwZ3GKmoGUfqYzM/9YMRVIcVZKBWAI4zucB373p5+MpEP9bF9HtPM5kkrXH+sZaM4Ou9atDOk3T334fgghDI+Mrh1JV9X/6g/nP7lf9mNMNldn+udjDsBsM53QKWY5X74+0nw9lQ7dF/q3RVNF1CTGrrx56sP+6HaZz1emenqmZVzM5+47X/3LJzo722ddWRBtL2cuDW/rvtC/beWyxJU3T33Y/9k7H32364PBMyGE8OW/WjPwufV1PX88O9AU/RtCCK//56W6zZ9ZueHgO73r+y5/vOlXfzhfH1UllCJqJlTo90mu3+ZSl0G0rs5cGs67PqPPTLnX5+oVNbMKcxeLqPt5qd9zUWh9/Ox/ffK9Fn2nZX+f1SarM6MVFsDNhj5tpb6/e7esPdj558WxPsfS4c0VyURJ+xCDw+n6TY2r1kcjB5pa9m///YkLD8+mKUV032jffL7/LcTmxrrnXuu6+PBsfuvz/cZnf1dFJyXGv5vyfx5qEmNX/uf/+MvvvnSsd+/QleJ+F+NWARhCprr8nqZHd83mRGH2Nhn9tkbr6OQHAyfDbQ+HXHNCXhkcXn/wnd5w8VrqU8Mjo2t/9Yfz9ZPXofBv/ggAF5FzAzf2Zs685QvSQshf/TfdPH3FBHaFhX6ZECmZKKw6MPO64jw/TCXrOb7v6PhBelX9Ug7/okrU7gs3tnX1DjwYFmCIDbM327PRi61aYa6VWgEYws2mQ1ufbMocGMyuK1+2yes1870VHawVtzO52OcAzN7uN7XsfySE8MNyhIDj/2Yuj6Sr6kdSk+evSpZtmE5NYuzKVzbf9qO5qL6efGAZvb9XTnwUXjnx0SeXsx3rGfjkvrN5j1mhZlHfJz3H9x3d0bL/79889eGsQsCp6zXX+qyak/VZrjC30vUc33e04baHT8526onsz974d1pVjs/k/DvVd23jmUuD20qp7l2RTCyqE/yHD7X3ffbOR9/N/q4oZv29dKx3b20IL9wcMv2zcv72VfIym+1UFLk+ByFM/e0p5PGj/bjOzvYX6u98dFexQ/TjGkZFJwrL8V2VvZyiQDCETCVn9vKbWkVueO9C0wRkkWhr69hzovfqNOXj2RV6YZrLhQz9LaVD8MT7XhhMTQqRcj3m+OUVycx8P9b0wog6A08+4zXX87VVoszB3szd3CjNfG1TUUVGadvAmOYfWUqtAIxETYdm09hgLsXpTH/P8X1HN32m7pHmdcvfXkzvKwr/5mOeuGKC4XIcBCaqqp8tNdTsOb7v6I67Pv33pXYGXsj1uffrf/ndhZ5KYz7mAIw037Gqcz4+cwv1uT43cGNvKdWHi6X772Sz2Qfou/zxpra2jj2vd/U/U0rH5EpUSEX75sa651avqFnw76pydE2OYwVgCJmgdtcXGr+9Ipnonqv3GMdpVuJGALgIRI0/RtKj9TM39ghh+gYhxVQIFtb5d93KZDr336d7rIl/V/238DJzSNW9mP2DsJSrAa+nhptvVgFSRvO1TfUc33e0YfUtJ4u931BqNGxYs/LtaL4Ziu8CnMuZ9x5/eu/X//K7NYmxK5W2Yx23ndPFFgJGYdFCNImYS0Op0dCy/i9e3Dj840dmuz6jELDS1+dQajSsSCa6v7Zl3TcqYR7d+ZoDMITx8GOu19FCfF/tbO1oeP/84N1x7v472V0Nq06X+h06kq6q/9ff9vz8+Nn/2h2X35dCKtrL0cW8HMrRNTnOodXhQ+19D9278d75+L6iMgkAF8NKSoQd440/QsgeNjtTZV3ukLDQ4cC5mnVMfZyJB/S5KwknVv1MfKwVyWXd2ZNSs3C+vHnt9yeGgIUEzvETvf/Xui4+vNBd1+JmPqtKv3VP44FSdm40/5hothWAkc7O9hf2fv0vv1tpO51xmQMwW8/xfUd3faHx25NP6lSaSgqLyqkmMXblnqa6F2/8+Z/+rlzrc8ddn/77yg51U6F53fK3d9z16b8vZ+flxSIKP0qtPC/UQqz/qkTYUeow9NUrahbl/N6HD7X3fTCQWnLb8WxFI4oWKgSsSYxdKcd3UNyDsSgErPQThQLKuSEArHBR9V+m7D7fgPlcc/hNvpyrC+90lXqTHz/fbQqZLzAaEjw5GEyGoVRV+OztK99dijuLlejwofa+L29e+/3mdcvfzr1el4bMJOmZyZxPfjDwQ1tG+cxnVWnUDKSYHYhosn5ralw5KgAjnZ3tLzx078Z7KymYisscgJMdPtTed+PP//R3f3P32h9UVuVlKtQkxq60rP+LFx+6d+O9cfr9H0qNfjKcuVzhXyQKdf/ilpp/qbTh9DWJsSv3bbn9B7u+0Pjtpbw/19nZ/kKiqvrZufysLURl0pET/btKeU+Ldfhv5B/u2/iHuQ504+jMe48/naiqfna+v6dWJBPde7/+l98tx3fQUhi2Gg0HjvYRKvV1fvb2le/6VJWXALDCdfUOPJiZdHe6L6JclXth0uVcFYOFdALO9Txh0uNP10V4utukwuoVNd3m2qoshw+19236TN0jNYnqK1MbzMTdxPdbmxwLZy4Nbmtr69hjy1ic2/IXm9c8X+jtF/vBylwpVwVg9nr58ua13/8/3/js/4zmNluIcCp6zsU2v1qxzrz3+NNf27LuG83rlr+9kEFg9Lwb1qx8+2tb1n3jxp//6e/K9Vlb6HAzCv6a1y1/+2tb1n1jroYzHz7U3rdx+MePfG3Lum9sWLPs7YV+7zWJsSsb1iz75D1X2nfnfM4BGNk4/ONH7mmqe3GuRk3M9/puatm/ffo5yPOLuv9W0jZRjM7O9heW1VT3L9bXX07FVrRvHP7xI/NVCRhNPbDjrk//fbmqyZdK5dnhQ+190T5CJfymRM8f/bb8n2989n+W+2QaAsCK1tSyf/tb3ZceyFT/ZQ/7zcjMvRdCZoht9jx8IRRWEThdmDf5uuIq/vKHgRPvr/qvMvUc33c0M19X9ZWl9c6TU/4dSlWFn756+gkNQRanYpuBOCExVTkrACOHD7X3RdWA92351A/me1hwNEn4fVs+9YO4VaHl0nN839Haiz/673u//pffzVR4z+dOfub3P1re5a4SW3tr7XsLOaw82pb2fv0vv1t78Uf/fT62paga8L4tn/pBNIRrPtdndHA2n++5FPM5B2C2G3/+p7+7b8vtFVZ5W5rR9NiXBocnd/8uzGLr/pvLF5vXPG8YYmkV7dnB0lwuw3ua6speTb7UGldk/6Ys1O9pFPzd01T3YvTbErfpQSpFjUVQuc4N3Nh7+fpIczQccXKgNt5pNznh8tSwcPLl6RtyFPa36R6r0E7DmYPtnkpdAUtcZ2f7C1/Z+mTTKyfOP7VUhwKHkAq1yQkNQWI1Sf1CmO/O0j3H9x1tuO3hk2cuDW+b6bbN65a/fVfDqtM9x62nbOWuAMx2s2Lo6YdaO57r6h14sPvctba+yx9vGklX1Q+lRsuyEx7tyNYmq0NNYuxKw+pbTn7rnsYDY+nwZubs99wtu1N91zaGECqmKqqzs/2F2hBe+OuW/dvPDdzY+/75wbuvp9LN2cuoHMs7epyaxNiVLY2rX76jbvmBuxpWnZ6L5X3mvceffqi147mqRNjx0rHevdH2M/m1lEP2clqRTHR/9vaV70bvrbNzfqvfos/OrtaO5071Xds4H+sz855XL9h7XkzOvPf4019r2f/GuYEbe0/0Xr1/tt9p5VynxXir+9IDpT5nHCrqo5OII+lQv9S36VJ+z3qO7zu6q7Xj21WJsOOnr55+Ivp+mu12nP1b3tnZ/sLhP5f3vS7F0Hfy/thb3ZceGB4ZXVvO/bHs5Zu9n7Csprr/vi1rn69OVL3Rc3zf0c4/L85luFgIACtUW1vHnn/97andtclkCKE6FBbiZQd/01Xt5Q721q1MpifOz5XMuj6ZmNjUY/J1ueQLBDPXtaxf/aLqv8p25r3Hn75v65Nh6YaA45+jt7ovPbCjZf8bttlxhw+19zVvfbKzmImyL32c6a43nyHbps/UPfLBwIffLOB2/z6fByufW1/X8/p/XvqXSn+++WjSFO141obw9Nda9m9/9eSH32xZX7chE2gMN2cq4TNm2gnN3nFfuSxxZcWKmv7P3r7y3bW31r63ubHuuUz14dxu5yGEkBqb/229UDe/x44+1NrRUJUIO/7tldOf/0xdcnsmPButj5Z3ITv8k5f3hnXLT34wkDr65b9aMxAt754Qwlwuh5vbzwu1Ibzwv1o7Grp6Bx58/T8v1W1Ys3z7x0PD/+3CYEhkv85CD2QmB34b1iz/6IOB1NF/uG/jH6IAea7fW4HvvS9an129Aw/2Xx3aemVweH3f5Y83ZVdvLZb1mefz9KtkdbFTyC5sFU/0OYu+0zasWb79zKXhbYWGeeO3GwurVyzr/uztK9+9d8vag/NVFbOztaPhJ78/XcJyz7ijbvm/L/aT/Hc1rDo9mh770ev/ealukb+V2X7+Sv49i76fG0N4YcPWJx/rvzq0tZiTFdnfSc3rlr/9wUDq6Fc3rfv3nuP7jhbyW7721tr3/uKWmjPFvNH85iQAABH5SURBVOZkdfERyT/ct/EP//bK6X8p9nlO9l47W0nrOtofawzh6aas/bHMiYzi9g8mr7/aZHVYtzKkb6ld/v9EvytR6DeXJ2OZKPH19r+xFCrMztaOhte7+p851jMwqX18rkAvVxfgGb9ush6vkPkAZ7rtTI8TprzOmkT1lb1f/8vvKu1dHJbf+egvjp+9vHvi9rNUjH+2ktXL/mXj8I8fsUXA/NjZ2tFwqu/axk2Nq9b/8exAU//Voa0hhPD++cG7J9/2tlXJj+pXLjsbQmaHPwouo8ozS7OwZR1CZthfCCFEQdLFa6lPLdblnW8bKvR9fW59Xc/J3mtnF9t2VOr7Xntr7XshjAf/Pj9zu05yrY/sdbFYtz8o9LNw5ET/rhByfzdFDSDu3bL2oM/Bwmpq2b89hBBm+v6avO6i35TouyyET06OsEAEgBXoZvXfzwuvrCumW2tUvZerK28hQ3rzPWd2BeF0j5PRsn71iyb1XDx2tnY0HHyn95dnLg1um35bK2ZbWmxSgmsAAAAWJU1AKszO1o6Gl4717s0e7jTRTN15p/s3c99MSJerarCY7r9Tu/yOz0OY6/Em3n8xdwVbiqLOwCuSy7onbk8hTL/O4xP+hRDCSHq0/qVjvXs1BAEAAGAxEQBWmK7egQfPXBrcNnVcfb6OvdMPCx7vDpwMuUK7wh4zWzHBYe7gZ8OalW8v9q5gS1HP8X1Hv/PVjU/UJMaujK/3XIoJkheDia+5+8KNbTcbggAAAMCiIACsIE0t+7e/1nXx4YnXZodx2bIDvuh2U28z81DfqY9Z3Lx/IczcYCQ54d/mO1Z1mr9hcersbH/hK5tv+1Huv6bybg+Zzq+LsQIwd2D5VvelB1QBAgAAsFgIACvIuYEbe7O7tWVkBynZ8g27na6Kr5DKrGKr/gp97sy/K5LLujc31j1nbS9eZ957/On7ttz+g/GuTvmGA49vD/mHnS82yVCbrA6Xr480qwIEAABgsRAAVoimlv3bT/Revb82OZZ17UxzrOX6/8m3C5MeL1clX67b5KrcKqQZSL7nzlz3xeY1z6v+W/w2N9Y9d09T3YuZEDCZ9d902+RirABM5nh/IdQmx8JrXRcfjjpiAQAAQCUTAFaAna0dDSc/GPjhSHq0fvzafGHJ5OCulIq/8esmzhGYLVflVjTsOKRzDyUevzzxcTMVYjWJ6ivViao3rPHF7/Ch9r4vb177/eZ1y98ubn7K+BgcTtefG7ihIQgAAAAVTwBYCSshEXacuTS4rbBbl6Pib/y2+ecIzPc403X7HTf+uOP3/crm237Uc3zfUWs8Hg4fau/b9YXGb2c6A0fDgAuZI3Lxi7p0n+i9en9VIuywNQAAAFDJBIALbGdrR8NPXz39RO6/ZocqoYjLoYi/FXub0u6r+i+eDh9q7/vOVzc+MXW7nSlIXtxqk9WhNlkdBofT9S8d61UFCAAAQEWrsQgW3heb1zwf9/f4ufV1PZ2d7ar/YmgsHd5ctzKZHq8MnWkuwPioTY6FM5cGt91sCPK0rQEAAIBKlPh6+99YCkDBomq3qkTY8cezA00hhPDenz/an5kvMoSJc/9F/x/fMHAoNRpWr6jpfujejfdqcAMAAEAlUgEI5LWztaPhVN+1jZsaV60/cqJ/15XB4fUH3+kNF6+lPjU8Mrp2vHFNvvn+omYzIX1hMJmIYwhYmxwL11PDzaoAAQAAqFQqAIEpVX39V4e2XhkcXn/xWupT11PDzSFkGl/UJsey7pVrnr/s65dGBWD0HmsS1Vf2fv0vv9vZ2f6CLQoAAIBKogIQlpCooi+EEKKqvhBCOPhO7ydhX9ThdnLYV5sMIYTqSY84OdBbWsN/s5fDSDpV/9Kx3r21IQgAAQAAqCgqACGGsiv6Qgghu6rv46Hh/zbesCMjqu6bWOVXamCXK/RbGkFgTWJMFSAAAAAVRwAIi1xU1TeaHvvS6/95qS6EED5Tl9w+dZ6+TNAXwnh1X3bgN345efP/R0NtsrqEVzQ57FsqVYCZ974iuUxDEAAAACqKIcCwSGQ35Ii673afu9b2/z3a80lFX02i+spIerT+zKXhEEIyDKXSN4fuZowHfNU3/z815W9R8Fda+BdC/rBvaQwF1hAEAACASqMCECpQU8v+7SGMz9N3ZXB4fQghTJ2nrzrkbsQRwsTht7muD1l/L1cotxSq/GZeBjWJ6iv/6/6//JwqQAAAACqBCkBYQJOr+qJ5+v5w+uJ/uzCYSvz2j7nvNz5PX66uvNkBXCGBXDkDu6Ue/mWWwUg6Vf96V/8zIYS/szwAAABYaCoAYR5ETTmiufpCyAzfjebpGxxO14cwufNuMZbqnHuVKlMFqCEIAAAAlUAACGWUHfRNruo7c2lwW3S7yc04MvIN2c1ncofd7MtCwIWVCkOpqnBPU92LX9689vuGAgMAALCQDAGGEk0evtt97lrbwXd6Q1TV99s/flCf634Tw79c8/EVKrptrqBP+LewkiGE0XD87OXd925ZezCEoAoQAACABaMCEGYQVfVVJcKO7Iq+vssfbxpJj9YX81hDqaqs4C9Xtd5MJt9uctCXmuY65k/qk/W9ekVN90P3brxXFSAAAAALRQUgZMmu6jtyon9XCCEcfKd3fd/ljzdF8/SFUPpcfeP3S+X5dyaTq/7yDfXNvk74t1Bqk2Phemq4uat34MEQwtOWCAAAAAtBBSBL0s7Wjoaooi+EEPqvDm0NIYTzl/7r2xcGU4kQ8g3VTZXpFSSLfKx8ty9kHkDm38R1VZOovvK1Leu+0XN831HLBgAAgPmmApBYmzxPXwiZ7rvPHjn9qeGR0bXTDeGdWOVXSlg307+TbxsKvF+ufydX/4Ug/FsoU4d0j6RH688N3NgbQhAAAgAAMO9UABIL+brvvn9+8O7rqeHmKJAZn4NvskIq8goN1Iqdk6/YsG+6xwjB/H+VZOK6+N9/fdf/7Oxs1xAEAACAeSUAZFGZHPRF8/RdGRxeH3XfjebqK3WePpgrLetXv/jlzWu/ryEIAAAA88kQYCpWru67B9/pXf/x0PB/CyGE3/7xg0Smoq86DKVGQwgh1CarQwijwj8q0vGzl3ffu2XtwRCCKkAAAADmjQpAFlx2Vd9oeuxL/VeHtmZX9GXP0xc15phOFP7lH+4LC2MoVRVWLktc+V/3/+XnVAECAAAwX1QAMu+ixhxR2Jdd1RdCCFEX3nUrk+mwrCqEUJWe6TEvDIbEupXh5u2qs/5SbYFTMa4NJ94PIYSu3oEHQwhPWyIAAADMBwEg8yqq9rurYdXpqkRYH0LoufmnA5YOcTeWDm9Gl8+8Z3kAAAAwPwwBBgAAAIAYq7IIAAAAACC+BIAAAAAAEGMCQAAAAACIMQEgAAAAAMSYABAAAAAAYkwACAAAAAAxJgAEAAAAgBgTAAIAAABAjAkAAQAAACDGBIAAAAAAEGMCQAAAAACIMQEgAAAAAMSYABAAAAAAYkwACAAAAAAxJgAEAAAAgBgTAAIAAABAjAkAAQAAACDGBIAAAAAAEGMCQAAAAACIMQEgAAAAAMSYABAAAAAAYkwACAAAAAAxJgAEAAAAgBgTAAIAAABAjAkAAQAAACDGBIAAAAAAEGMCQAAAAACIMQEgAAAAAMSYABAAAAAAYkwACAAAAAAxJgAEAAAAgBgTAAIAAABAjAkAAQAAACDGBIAAAAAAEGMCQAAAAACIMQEgAAAAAMSYABAAAAAAYkwACAAAAAAxJgAEAAAAgBgTAAIAAABAjAkAAQAAACDGBIAAAAAAEGMCQAAAAACIMQEgAAAAAMSYABAAAAAAYkwACAAAAAAxJgAEAAAAgBgTAAIAAABAjAkAAQAAACDGBIAAAAAAEGMCQAAAAACIMQEgAAAAAMSYABAAAAAAYkwACAAAAAAxJgAEAAAAgBgTAAIAAABAjAkAAQAAACDGBIAAAAAAEGMCQAAAAACIMQEgAAAAAMSYABAAAAAAYkwACAAAAAAxJgAEAAAAgBgTAAIAAABAjAkAAQAAACDGBIAAAAAAEGMCQAAAAACIMQEgAAAAAMSYABAAAAAAYkwACAAAAAAxJgAEAAAAgBgTAAIAAABAjAkAAQAAACDGBIAAAAAAEGMCQAAAAACIMQEgAAAAAMSYABAAAAAAYkwACAAAAAAxJgAEAAAAgBgTAAIAAABAjAkAAQAAACDGBIAAAAAAEGMCQAAAAACIMQEgAAAAAMSYABAAAAAAYkwACAAAAAAxJgAEAAAAgBgTAAIAAABAjAkAAQAAACDGBIAAAAAAEGMCQAAAAACIMQEgAAAAAMSYABAAAAAAYkwACAAAAAAxJgAEAAAAgBgTAAIAAABAjAkAAQAAACDGBIAAAAAAEGMCQAAAAACIMQEgAAAAAMSYABAAAAAAYkwACAAAAAAxJgAEAAAAgBgTAAIAAABAjAkAAQAAACDGBIAAAAAAEGMCQAAAAACIMQEgAAAAAMSYABAAAAAAYkwACAAAAAAxJgAEAAAAgBgTAAIAAABAjAkAAQAAACDGBIAAAAAAEGMCQAAAAACIMQEgAAAAAMSYABAAAAAAYkwACAAAAAAxJgAEAAAAgBgTAAIAAABAjAkAAQAAACDGBIAAAAAAEGMCQAAAAACIMQEgAAAAAMSYABAAAAAAYkwACAAAAAAxJgAEAAAAgBgTAAIAAABAjAkAAQAAACDGBIAAAAAAEGMCQAAAAACIMQEgAAAAAMSYABAAAAAAYkwACAAAAAAxJgAEAAAAgBgTAAIAAABAjAkAAQAAACDGBIAAAAAAEGMCQAAAAACIMQEgAAAAAMSYABAAAAAAYkwACAAAAAAxJgAEAAAAgBgTAAIAAABAjAkAAQAAACDGBIAAAAAAEGMCQAAAAACIMQEgAAAAAMSYABAAAAAAYkwACAAAAAAxJgAEAAAAgBgTAAIAAABAjAkAAQAAACDGBIAAAAAAEGMCQAAAAACIMQEgAAAAAMSYABAAAAAAYkwACAAAAAAxJgAEAAAAgBgTAAIAAABAjAkAAQAAACDGBIAAAAAAEGMCQAAAAACIMQEgAAAAAMSYABAAAAAAYkwACAAAAAAxJgAEAAAAgBgTAAIAAABAjAkAAQAAACDGBIAAAAAAEGMCQAAAAACIMQEgAAAAAMSYABAAAAAAYkwACAAAAAAxJgAEAAAAgBgTAAIAAABAjAkAAQAAACDGBIAAAAAAEGMCQAAAAACIMQEgAAAAAMSYABAAAAAAYkwACAAAAAAxJgAEAAAAgBgTAAIAAABAjAkAAQAAACDGBIAAAAAAEGMCQAAAAACIMQEgAAAAAMSYABAAAAAAYkwACAAAAAAxJgAEAAAAgBgTAAIAAABAjAkAAQAAACDGBIAAAAAAEGMCQAAAAACIMQEgAAAAAMSYABAAAAAAYkwACAAAAAAxJgAEAAAAgBgTAAIAAABAjAkAAQAAACDGBIAAAAAAEGMCQAAAAACIMQEgAAAAAMSYABAAAAAAYkwACAAAAAAxJgAEAAAAgBgTAAIAAABAjAkAAQAAACDGBIAAAAAAEGMCQAAAAACIMQEgAAAAAMSYABAAAAAAYkwACAAAAAAxJgAEAAAAgBgTAAIAAABAjAkAAQAAACDGBIAAAAAAEGMCQAAAAACIMQEgAAAAAMSYABAAAAAAYkwACAAAAAAxJgAEAAAAgBgTAAIAAABAjAkAAQAAACDGBIAAAAAAEGMCQAAAAACIMQEgAAAAAMSYABAAAAAAYkwACAAAAAAxJgAEAAAAgBgTAAIAAABAjAkAAQAAACDGBIAAAAAAEGMCQAAAAACIMQEgAAAAAMSYABAAAAAAYkwACAAAAAAxJgAEAAAAgBgTAAIAAABAjAkAAQAAACDGBIAAAAAAEGMCQAAAAACIMQEgAAAAAMSYABAAAAAAYkwACAAAAAAxJgAEAAAAgBgTAAIAAABAjAkAAQAAACDGBIAAAAAAEGMCQAAAAACIMQEgAAAAAMSYABAAAAD+/+3YgQwAAADAIH/re3yFEcCYAAQAAACAMQEIAAAAAGMCEAAAAADGBCAAAAAAjAlAAAAAABgTgAAAAAAwJgABAAAAYEwAAgAAAMCYAAQAAACAMQEIAAAAAGMCEAAAAADGBCAAAAAAjAW/I1Vnmg8pWgAAABJ0RVh0RVhJRjpPcmllbnRhdGlvbgAxhFjs7wAAAABJRU5ErkJggg==;" vertex="1" parent="1">
          <mxGeometry x="210" y="250" width="160" height="90" as="geometry" />
        </mxCell>
        <mxCell id="doVB9iUuh4Ds8grdma0x-29" value="" style="endArrow=classic;html=1;rounded=0;" edge="1" parent="1">
          <mxGeometry width="50" height="50" relative="1" as="geometry">
            <mxPoint x="328" y="453.69" as="sourcePoint" />
            <mxPoint x="420" y="453.69" as="targetPoint" />
          </mxGeometry>
        </mxCell>
        <mxCell id="doVB9iUuh4Ds8grdma0x-34" value="Transformation" style="text;html=1;align=center;verticalAlign=middle;whiteSpace=wrap;rounded=0;" vertex="1" parent="1">
          <mxGeometry x="578.5999999999999" y="385.5" width="60" height="30" as="geometry" />
        </mxCell>
        <mxCell id="doVB9iUuh4Ds8grdma0x-36" value="Raw Data" style="text;html=1;align=center;verticalAlign=middle;whiteSpace=wrap;rounded=0;" vertex="1" parent="1">
          <mxGeometry x="409" y="390" width="60" height="30" as="geometry" />
        </mxCell>
        <mxCell id="doVB9iUuh4Ds8grdma0x-40" value="Ingestion" style="text;html=1;align=center;verticalAlign=middle;whiteSpace=wrap;rounded=0;" vertex="1" parent="1">
          <mxGeometry x="260" y="390" width="60" height="30" as="geometry" />
        </mxCell>
        <mxCell id="doVB9iUuh4Ds8grdma0x-42" value="Transformed Data" style="text;html=1;align=center;verticalAlign=middle;whiteSpace=wrap;rounded=0;" vertex="1" parent="1">
          <mxGeometry x="702.5999999999999" y="385.5" width="110" height="30" as="geometry" />
        </mxCell>
        <mxCell id="doVB9iUuh4Ds8grdma0x-47" value="&lt;font style=&quot;&quot;&gt;ETL&lt;/font&gt;" style="text;html=1;align=center;verticalAlign=middle;whiteSpace=wrap;rounded=0;fontColor=#000000;" vertex="1" parent="1">
          <mxGeometry x="655" y="349" width="60" height="30" as="geometry" />
        </mxCell>
        <mxCell id="doVB9iUuh4Ds8grdma0x-53" value="" style="endArrow=classic;html=1;rounded=0;" edge="1" parent="1">
          <mxGeometry width="50" height="50" relative="1" as="geometry">
            <mxPoint x="970" y="452.1" as="sourcePoint" />
            <mxPoint x="1080" y="452.1" as="targetPoint" />
          </mxGeometry>
        </mxCell>
        <mxCell id="doVB9iUuh4Ds8grdma0x-54" value="Analysis" style="text;html=1;align=center;verticalAlign=middle;whiteSpace=wrap;rounded=0;" vertex="1" parent="1">
          <mxGeometry x="910" y="390" width="60" height="30" as="geometry" />
        </mxCell>
      </root>
    </mxGraphModel>
  </diagram>
</mxfile>
